<svg width="24" height="24" viewBox="0 0 24 24" fill="none" xmlns="http://www.w3.org/2000/svg">
<path d="M11.84 9.05098C10.2936 9.05098 9.04 10.3046 9.04 11.851C9.04 13.3974 10.2936 14.651 11.84 14.651C13.3864 14.651 14.64 13.3974 14.64 11.851C14.6427 11.1076 14.3485 10.3938 13.8228 9.86813C13.2972 9.34245 12.5834 9.04831 11.84 9.05098Z" fill="white"/>
<path fill-rule="evenodd" clip-rule="evenodd" d="M15.69 2.00098H8C4.68629 2.00098 2 4.68727 2 8.00098V15.691C2 19.0047 4.68629 21.691 8 21.691H15.69C19.0037 21.691 21.69 19.0047 21.69 15.691V8.00098C21.69 4.68727 19.0037 2.00098 15.69 2.00098ZM11.84 16.141C9.47298 16.1355 7.5555 14.218 7.55 11.851C7.54596 10.11 8.59213 8.53834 10.1998 7.87022C11.8075 7.2021 13.6595 7.56935 14.8905 8.80043C16.1216 10.0315 16.4889 11.8834 15.8208 13.4911C15.1526 15.0988 13.581 16.145 11.84 16.141ZM15.5749 6.91274C15.7462 7.32094 16.1473 7.58502 16.59 7.58098C17.1865 7.58098 17.67 7.09744 17.67 6.50098C17.674 6.05832 17.41 5.65718 17.0018 5.48591C16.5936 5.31464 16.1223 5.40726 15.8093 5.72028C15.4963 6.0333 15.4037 6.50454 15.5749 6.91274Z" fill="white"/>
</svg>
