<svg width="29" height="29" viewBox="0 0 29 29" fill="none" xmlns="http://www.w3.org/2000/svg">
<path d="M24.7058 13.157V9.7416C24.7058 7.81219 24.7058 6.84749 24.2304 6.21807C23.7549 5.58867 22.68 5.2831 20.5301 4.67197C19.0613 4.25444 17.7665 3.75142 16.732 3.29219C15.3215 2.66609 14.6164 2.35303 14.1175 2.35303C13.6187 2.35303 12.9135 2.66609 11.5031 3.29219C10.4686 3.75142 9.17381 4.25444 7.70498 4.67197C5.5551 5.2831 4.48014 5.58867 4.00472 6.21807C3.5293 6.84749 3.5293 7.81219 3.5293 9.7416V13.157C3.5293 19.7748 9.4855 23.7454 12.4634 25.317C13.1776 25.6939 13.5347 25.8824 14.1175 25.8824C14.7004 25.8824 15.0574 25.6939 15.7716 25.317C18.7495 23.7454 24.7058 19.7748 24.7058 13.157Z" stroke="#5048ED" stroke-width="1.76471" stroke-linecap="round"/>
<path d="M14.1172 8.23535V10.5883" stroke="#5048ED" stroke-width="1.76471" stroke-linecap="round"/>
</svg>
