<svg width="29" height="29" viewBox="0 0 29 29" fill="none" xmlns="http://www.w3.org/2000/svg">
<path d="M5.02015 22.1704C5.28471 24.1354 6.91229 25.6748 8.89291 25.7659C10.5595 25.8425 12.2525 25.8825 14.1168 25.8825C15.9812 25.8825 17.6741 25.8425 19.3407 25.7659C21.3214 25.6748 22.949 24.1354 23.2135 22.1704C23.3863 20.888 23.5286 19.5738 23.5286 18.2354C23.5286 16.8971 23.3863 15.5828 23.2135 14.3005C22.949 12.3354 21.3214 10.796 19.3407 10.705C17.6741 10.6283 15.9812 10.5884 14.1168 10.5884C12.2525 10.5884 10.5595 10.6283 8.89291 10.705C6.91229 10.796 5.28471 12.3354 5.02015 14.3005C4.84748 15.5828 4.70508 16.8971 4.70508 18.2354C4.70508 19.5738 4.84748 20.888 5.02015 22.1704Z" stroke="#5048ED" stroke-width="1.76471"/>
<path d="M8.82422 10.5883V7.64715C8.82422 4.72329 11.1945 2.35303 14.1183 2.35303C16.4234 2.35303 18.236 4.11773 18.8242 5.88244" stroke="#5048ED" stroke-width="1.76471" stroke-linecap="round" stroke-linejoin="round"/>
<path d="M14.1133 18.2354H14.1239" stroke="#5048ED" stroke-width="2.35294" stroke-linecap="round" stroke-linejoin="round"/>
</svg>
