<svg width="28" height="28" viewBox="0 0 28 28" fill="none" xmlns="http://www.w3.org/2000/svg">
<path d="M18.0827 13.9998C18.0827 16.255 16.2545 18.0832 13.9993 18.0832C11.7442 18.0832 9.91602 16.255 9.91602 13.9998C9.91602 11.7447 11.7442 9.9165 13.9993 9.9165C16.2545 9.9165 18.0827 11.7447 18.0827 13.9998Z" stroke="#5048ED" stroke-width="1.75"/>
<path d="M24.5135 16.446C25.1224 16.2819 25.4269 16.1998 25.547 16.0427C25.6673 15.8858 25.6673 15.6332 25.6673 15.1282V12.8722C25.6673 12.3671 25.6673 12.1146 25.547 11.9576C25.4268 11.8006 25.1224 11.7185 24.5135 11.5543C22.238 10.9406 20.8139 8.56171 21.4012 6.30113C21.5626 5.67944 21.6434 5.36861 21.5663 5.18629C21.4891 5.00398 21.2679 4.87835 20.8253 4.62707L18.8132 3.48464C18.3789 3.23807 18.1618 3.11479 17.967 3.14104C17.772 3.16729 17.5522 3.38664 17.1124 3.8253C15.41 5.52368 12.5932 5.52361 10.8907 3.8252C10.451 3.38652 10.2311 3.16719 10.0362 3.14093C9.84136 3.11468 9.62422 3.23796 9.18994 3.48452L7.1778 4.62697C6.73527 4.87822 6.514 5.00385 6.43689 5.18613C6.35978 5.36842 6.4405 5.6793 6.60194 6.30105C7.18892 8.5617 5.76366 10.9407 3.48784 11.5543C2.87896 11.7185 2.57452 11.8006 2.45424 11.9575C2.33398 12.1146 2.33398 12.3671 2.33398 12.8722V15.1282C2.33398 15.6332 2.33398 15.8858 2.45424 16.0427C2.57449 16.1998 2.87895 16.2819 3.48784 16.446C5.76328 17.0597 7.18741 19.4387 6.60016 21.6992C6.43866 22.3209 6.3579 22.6317 6.435 22.8141C6.51212 22.9964 6.73339 23.1221 7.17594 23.3732L9.18809 24.5158C9.6224 24.7623 9.83955 24.8856 10.0345 24.8593C10.2294 24.8331 10.4492 24.6136 10.8888 24.175C12.5921 22.4753 15.4109 22.4751 17.1144 24.1749C17.554 24.6136 17.7738 24.833 17.9687 24.8592C18.1636 24.8855 18.3808 24.7622 18.815 24.5156L20.8272 23.3731C21.2698 23.1219 21.4911 22.9963 21.5681 22.8139C21.6452 22.6316 21.5645 22.3208 21.4029 21.6991C20.8154 19.4387 22.2384 17.0598 24.5135 16.446Z" stroke="#5048ED" stroke-width="1.75" stroke-linecap="round"/>
</svg>
