<svg width="28" height="28" viewBox="0 0 28 28" fill="none" xmlns="http://www.w3.org/2000/svg">
<path d="M14 25.6667C13.0454 25.6667 12.1336 25.2815 10.3098 24.5112C5.76991 22.5934 3.5 21.6345 3.5 20.0216C3.5 19.57 3.5 11.742 3.5 8.16675M14 25.6667C14.9546 25.6667 15.8664 25.2815 17.6903 24.5112C22.2301 22.5934 24.5 21.6345 24.5 20.0216V8.16675M14 25.6667V13.2473" stroke="#5048ED" stroke-width="1.75" stroke-linecap="round" stroke-linejoin="round"/>
<path d="M9.71357 11.3065L6.30551 9.65741C4.43516 8.75237 3.5 8.29985 3.5 7.58325C3.5 6.86665 4.43516 6.41413 6.30551 5.50909L9.71357 3.85998C11.8169 2.84216 12.8687 2.33325 14 2.33325C15.1313 2.33325 16.1831 2.84215 18.2864 3.85998L21.6945 5.50909C23.5648 6.41413 24.5 6.86665 24.5 7.58325C24.5 8.29985 23.5648 8.75237 21.6945 9.65741L18.2864 11.3065C16.1831 12.3244 15.1313 12.8333 14 12.8333C12.8687 12.8333 11.8169 12.3244 9.71357 11.3065Z" stroke="#5048ED" stroke-width="1.75" stroke-linecap="round" stroke-linejoin="round"/>
<path d="M7 14L9.33333 15.1667" stroke="#5048ED" stroke-width="1.75" stroke-linecap="round" stroke-linejoin="round"/>
<path d="M19.8327 4.6665L8.16602 10.4998" stroke="#5048ED" stroke-width="1.75" stroke-linecap="round" stroke-linejoin="round"/>
</svg>
