<svg width="28" height="28" viewBox="0 0 28 28" fill="none" xmlns="http://www.w3.org/2000/svg">
<path d="M7.58398 4.0835H5.25065C4.60632 4.0835 4.08398 4.60584 4.08398 5.25016V9.3335C4.08398 12.8774 6.95682 15.7502 10.5007 15.7502C14.0445 15.7502 16.9173 12.8774 16.9173 9.3335V5.25016C16.9173 4.60584 16.395 4.0835 15.7507 4.0835H13.4173" stroke="#5048ED" stroke-width="1.75" stroke-linecap="round" stroke-linejoin="round"/>
<path d="M21.5833 18.0833V19.5417C21.5833 22.6023 19.1023 25.0833 16.0417 25.0833C12.981 25.0833 10.5 22.6023 10.5 19.5417V15.75" stroke="#5048ED" stroke-width="1.75" stroke-linecap="round" stroke-linejoin="round"/>
<path d="M13.416 2.9165V5.24984" stroke="#5048ED" stroke-width="1.75" stroke-linecap="round" stroke-linejoin="round"/>
<path d="M7.58398 2.9165V5.24984" stroke="#5048ED" stroke-width="1.75" stroke-linecap="round" stroke-linejoin="round"/>
<path d="M23.9167 15.7501C23.9167 17.0388 22.872 18.0834 21.5833 18.0834C20.2946 18.0834 19.25 17.0388 19.25 15.7501C19.25 14.4614 20.2946 13.4167 21.5833 13.4167C22.872 13.4167 23.9167 14.4614 23.9167 15.7501Z" stroke="#5048ED" stroke-width="1.75"/>
</svg>
