<svg width="28" height="28" viewBox="0 0 28 28" fill="none" xmlns="http://www.w3.org/2000/svg">
<path d="M23.3327 25.6665V22.1665C23.3327 18.8667 23.3327 17.2167 22.3075 16.1917C21.2824 15.1665 19.6325 15.1665 16.3327 15.1665H11.666C8.36618 15.1665 6.71627 15.1665 5.69114 16.1917C4.66602 17.2167 4.66602 18.8667 4.66602 22.1665C4.66602 23.2537 4.66602 23.7973 4.84363 24.226C5.08045 24.7978 5.53469 25.252 6.10642 25.4888C6.53523 25.6665 7.07882 25.6665 8.16602 25.6665" stroke="#5048ED" stroke-width="1.75" stroke-linecap="round" stroke-linejoin="round"/>
<path d="M11.0827 15.1665L14.5827 25.6665M8.16602 15.7498V25.6665" stroke="#5048ED" stroke-width="1.75" stroke-linecap="round" stroke-linejoin="round"/>
<path d="M14 22.1667H16.9167C17.8831 22.1667 18.6667 22.9503 18.6667 23.9167C18.6667 24.8832 17.8831 25.6667 16.9167 25.6667H14.5833" stroke="#5048ED" stroke-width="1.75" stroke-linecap="round" stroke-linejoin="round"/>
<path d="M18.0827 7.5835V6.41683C18.0827 4.16166 16.2545 2.3335 13.9993 2.3335C11.7442 2.3335 9.91602 4.16166 9.91602 6.41683V7.5835C9.91602 9.83866 11.7442 11.6668 13.9993 11.6668C16.2545 11.6668 18.0827 9.83866 18.0827 7.5835Z" stroke="#5048ED" stroke-width="1.75" stroke-linecap="round" stroke-linejoin="round"/>
</svg>
