<svg width="28" height="28" viewBox="0 0 28 28" fill="none" xmlns="http://www.w3.org/2000/svg">
<path d="M22.7493 20.4167C22.7493 22.0275 21.4435 23.3333 19.8327 23.3333C18.2219 23.3333 16.916 22.0275 16.916 20.4167C16.916 18.8059 18.2219 17.5 19.8327 17.5C21.4435 17.5 22.7493 18.8059 22.7493 20.4167Z" stroke="#5048ED" stroke-width="1.75"/>
<path d="M11.0833 20.4167C11.0833 22.0275 9.7775 23.3333 8.16667 23.3333C6.55584 23.3333 5.25 22.0275 5.25 20.4167C5.25 18.8059 6.55584 17.5 8.16667 17.5C9.7775 17.5 11.0833 18.8059 11.0833 20.4167Z" stroke="#5048ED" stroke-width="1.75"/>
<path d="M16.9173 20.4165H11.084M17.5007 18.0832V8.1665C17.5007 6.51659 17.5007 5.69163 16.9881 5.17907C16.4755 4.6665 15.6506 4.6665 14.0007 4.6665H5.83398C4.18407 4.6665 3.35911 4.6665 2.84655 5.17907C2.33398 5.69163 2.33398 6.51659 2.33398 8.1665V17.4998C2.33398 18.5902 2.33398 19.1354 2.56844 19.5415C2.72203 19.8075 2.94295 20.0285 3.20898 20.182C3.61508 20.4165 4.16026 20.4165 5.25065 20.4165M18.084 7.58317H20.1856C21.1536 7.58317 21.6375 7.58317 22.0388 7.81032C22.4399 8.03747 22.6889 8.45245 23.1869 9.28243L25.1686 12.5853C25.4164 12.9983 25.5403 13.2049 25.6039 13.4341C25.6673 13.6634 25.6673 13.9042 25.6673 14.386V17.4998C25.6673 18.5902 25.6673 19.1354 25.4328 19.5415C25.2793 19.8075 25.0583 20.0285 24.7923 20.182C24.3862 20.4165 23.841 20.4165 22.7507 20.4165" stroke="#5048ED" stroke-width="1.75" stroke-linecap="round" stroke-linejoin="round"/>
</svg>
