<svg width="28" height="28" viewBox="0 0 28 28" fill="none" xmlns="http://www.w3.org/2000/svg">
<path d="M19.834 2.3335C19.834 2.92833 19.834 3.22575 19.913 3.50292C19.9564 3.65517 20.0172 3.80191 20.0942 3.94026C20.2343 4.1921 20.4446 4.40242 20.8652 4.82302L23.1778 7.13564C23.5984 7.55624 23.8087 7.76656 24.0606 7.90667C24.199 7.98364 24.3456 8.04443 24.4979 8.08782C24.7751 8.16683 25.0724 8.16683 25.6673 8.16683" stroke="#5048ED" stroke-width="1.75" stroke-linecap="round" stroke-linejoin="round"/>
<path d="M13.6426 8.1665L7.89344 13.9156C6.65121 15.1579 6.0301 15.779 5.88205 16.5233C5.81796 16.8455 5.81796 17.1771 5.88205 17.4994C6.0301 18.2437 6.65122 18.8648 7.89344 20.1071C9.13566 21.3493 9.75678 21.9704 10.5011 22.1184C10.8233 22.1825 11.155 22.1825 11.4772 22.1184C12.2215 21.9704 12.8426 21.3493 14.0849 20.1071L19.834 14.3579" stroke="#5048ED" stroke-width="1.75" stroke-linecap="round" stroke-linejoin="round"/>
<path d="M12.834 7L21.0007 15.1667" stroke="#5048ED" stroke-width="1.75" stroke-linecap="round" stroke-linejoin="round"/>
<path d="M9.33268 21.7432L7.96831 22.7178C7.41919 23.11 7.14464 23.3061 6.84355 23.3298C6.72678 23.339 6.60929 23.3293 6.49563 23.301C6.20254 23.2282 5.96395 22.9896 5.48679 22.5124C5.00963 22.0353 4.77105 21.7967 4.69817 21.5036C4.6699 21.3899 4.66018 21.2724 4.66937 21.1556C4.69308 20.8546 4.8892 20.58 5.28142 20.0309L6.25597 18.6665" stroke="#5048ED" stroke-width="1.75" stroke-linecap="round" stroke-linejoin="round"/>
<path d="M15.75 9.33342L21.5833 4.66675M18.6667 12.2501L23.3333 6.41675" stroke="#5048ED" stroke-width="1.75" stroke-linejoin="round"/>
<path d="M5.25065 22.75L2.33398 25.6667" stroke="#5048ED" stroke-width="1.75" stroke-linecap="round" stroke-linejoin="round"/>
</svg>
