<svg width="20" height="20" viewBox="0 0 20 20" fill="none" xmlns="http://www.w3.org/2000/svg">
<path d="M12.5 2.08301V3.33301C12.5 4.51152 12.5 5.10077 12.8661 5.46689C13.2322 5.83301 13.8215 5.83301 15 5.83301H16.25" stroke="#414651" stroke-width="1.25" stroke-linecap="round" stroke-linejoin="round"/>
<path d="M3.33398 13.3337V6.66699C3.33398 4.30997 3.33398 3.13146 4.06622 2.39923C4.79845 1.66699 5.97696 1.66699 8.33398 1.66699H11.8103C12.1509 1.66699 12.3212 1.66699 12.4744 1.73043C12.6275 1.79386 12.748 1.91429 12.9888 2.15515L16.1792 5.3455C16.42 5.58636 16.5405 5.70679 16.6039 5.85993C16.6673 6.01308 16.6673 6.18339 16.6673 6.52402V13.3337C16.6673 15.6907 16.6673 16.8692 15.9351 17.6014C15.2028 18.3337 14.0243 18.3337 11.6673 18.3337H8.33398C5.97696 18.3337 4.79845 18.3337 4.06622 17.6014C3.33398 16.8692 3.33398 15.6907 3.33398 13.3337Z" stroke="#414651" stroke-width="1.25" stroke-linecap="round" stroke-linejoin="round"/>
<path d="M6.66602 9.16699H13.3327M6.66602 11.667H13.3327M6.66602 14.167H10.1417" stroke="#414651" stroke-width="1.25" stroke-linecap="round" stroke-linejoin="round"/>
</svg>
