<svg width="499" height="613" viewBox="0 0 499 613" fill="none" xmlns="http://www.w3.org/2000/svg">
<path d="M467.555 132.975C467.862 133.282 467.862 133.779 467.555 134.086L462.559 139.082C462.252 139.389 461.755 139.389 461.448 139.082C461.142 138.776 461.142 138.278 461.448 137.972L465.89 133.531L461.448 129.089C461.142 128.783 461.142 128.285 461.448 127.979C461.755 127.672 462.252 127.672 462.559 127.979L467.555 132.975ZM402.377 303.419L402.36 304.204L402.377 303.419ZM383.641 303.021L383.658 302.236L402.393 302.634L402.377 303.419L402.36 304.204L383.624 303.806L383.641 303.021ZM423.757 282.487H422.972V154.467H423.757H424.543V282.487H423.757ZM444.694 133.531V132.745H467V133.531V134.316H444.694V133.531ZM423.757 154.467H422.972C422.972 142.47 432.697 132.745 444.694 132.745V133.531V134.316C433.565 134.316 424.543 143.338 424.543 154.467H423.757ZM402.377 303.419L402.393 302.634C413.687 302.874 422.972 293.784 422.972 282.487H423.757H424.543C424.543 294.664 414.534 304.463 402.36 304.204L402.377 303.419Z" fill="#A4A7AE"/>
<path d="M78.537 302.826L78.5537 302.041C78.5481 302.041 78.5425 302.041 78.537 302.041V302.826ZM32.4448 302.271C32.1382 302.578 32.1382 303.075 32.4448 303.382L37.4413 308.378C37.7479 308.685 38.245 308.685 38.5516 308.378C38.8582 308.071 38.8582 307.574 38.5516 307.268L34.1103 302.826L38.5516 298.385C38.8582 298.078 38.8582 297.581 38.5516 297.275C38.245 296.968 37.7479 296.968 37.4413 297.275L32.4448 302.271ZM103.137 303.35L103.121 304.135C103.133 304.135 103.145 304.135 103.158 304.135L103.137 303.35ZM78.537 302.826V302.041H76.4433V302.826V303.612H78.537V302.826ZM76.4433 302.826V302.041H33V302.826V303.612H76.4433V302.826ZM123.551 302.826L123.53 302.042L103.117 302.565L103.137 303.35L103.158 304.135L123.571 303.611L123.551 302.826ZM103.137 303.35L103.154 302.565L78.5537 302.041L78.537 302.826L78.5203 303.611L103.121 304.135L103.137 303.35Z" fill="#A4A7AE"/>
<path d="M467.465 302.271C467.771 302.578 467.771 303.075 467.465 303.382L462.468 308.378C462.162 308.685 461.665 308.685 461.358 308.378C461.051 308.071 461.051 307.574 461.358 307.268L465.799 302.826L461.358 298.385C461.051 298.078 461.051 297.581 461.358 297.275C461.665 296.968 462.162 296.968 462.468 297.275L467.465 302.271ZM383.164 302.826V302.041H408.287V302.826V303.612H383.164V302.826ZM408.287 302.826V302.041H423.466V302.826V303.612H408.287V302.826ZM423.466 302.826V302.041H466.91V302.826V303.612H423.466V302.826Z" fill="#A4A7AE"/>
<path d="M39.4207 471.912C39.1141 471.605 39.1141 471.108 39.4207 470.802L44.4171 465.805C44.7238 465.498 45.2209 465.498 45.5275 465.805C45.8341 466.112 45.8341 466.609 45.5275 466.915L41.0862 471.357L45.5275 475.798C45.8341 476.105 45.8341 476.602 45.5275 476.908C45.2209 477.215 44.7238 477.215 44.4171 476.908L39.4207 471.912ZM125.147 302.826V303.611H102.012V302.826V302.041H125.147V302.826ZM81.0759 323.763H81.861V450.42H81.0759H80.2908V323.763H81.0759ZM60.1394 471.357V472.142H39.9758V471.357V470.572H60.1394V471.357ZM81.0759 450.42H81.861C81.861 462.417 72.1359 472.142 60.1394 472.142V471.357V470.572C71.2687 470.572 80.2908 461.549 80.2908 450.42H81.0759ZM102.012 302.826V303.611C90.8831 303.611 81.861 312.634 81.861 323.763H81.0759H80.2908C80.2908 311.766 90.0159 302.041 102.012 302.041V302.826Z" fill="#A4A7AE"/>
<path d="M467.293 471.912C467.6 471.605 467.6 471.108 467.293 470.802L462.297 465.805C461.99 465.498 461.493 465.498 461.187 465.805C460.88 466.112 460.88 466.609 461.187 466.915L465.628 471.357L461.187 475.798C460.88 476.105 460.88 476.602 461.187 476.908C461.493 477.215 461.99 477.215 462.297 476.908L467.293 471.912ZM407.285 303.611C407.718 303.611 408.07 303.26 408.07 302.826C408.07 302.393 407.718 302.041 407.285 302.041V303.611ZM423.452 318.993H422.667V450.42H423.452H424.237V318.993H423.452ZM444.389 471.357V472.142H466.738V471.357V470.572H444.389V471.357ZM377.037 302.826V303.611H407.285V302.826V302.041H377.037V302.826ZM423.452 450.42H422.667C422.667 462.417 432.392 472.142 444.389 472.142V471.357V470.572C433.259 470.572 424.237 461.549 424.237 450.42H423.452ZM423.452 318.993H424.237C424.237 309.631 416.647 302.041 407.285 302.041V302.826V303.611C415.78 303.611 422.667 310.498 422.667 318.993H423.452Z" fill="#A4A7AE"/>
<path d="M250.826 450.668L125.488 388.284C124.38 387.732 123.679 386.601 123.679 385.363V380.017L250.918 319.899C252.389 319.204 254.094 319.204 255.564 319.899L382.803 380.017V386.465C382.803 387.293 382.334 388.049 381.592 388.415L255.66 450.675C254.136 451.428 252.348 451.425 250.826 450.668Z" fill="#100D71"/>
<path d="M126.764 375.184L249.428 315.077C251.833 313.898 254.649 313.898 257.055 315.077L379.718 375.184C383.788 377.178 383.776 382.983 379.698 384.96L257.022 444.444C254.635 445.602 251.848 445.602 249.46 444.444L126.784 384.96C122.707 382.983 122.695 377.178 126.764 375.184Z" fill="#7B74F4"/>
<path d="M250.826 368.535L125.488 306.151C124.38 305.599 123.679 304.468 123.679 303.23V297.884L250.918 237.766C252.389 237.071 254.094 237.071 255.564 237.766L382.803 297.884V304.332C382.803 305.16 382.334 305.916 381.592 306.282L255.66 368.542C254.136 369.295 252.348 369.292 250.826 368.535Z" fill="#1A1689"/>
<path d="M126.764 293.051L249.428 232.944C251.833 231.766 254.649 231.766 257.055 232.944L379.718 293.051C383.788 295.045 383.776 300.85 379.698 302.827L257.022 362.311C254.635 363.469 251.848 363.469 249.46 362.311L126.784 302.827C122.707 300.85 122.695 295.045 126.764 293.051Z" fill="#DDDAFE"/>
<path d="M39.6824 128.445C39.3758 128.751 39.3758 129.249 39.6824 129.555L44.6789 134.552C44.9855 134.858 45.4826 134.858 45.7892 134.552C46.0958 134.245 46.0958 133.748 45.7892 133.441L41.3479 129L45.7892 124.559C46.0958 124.252 46.0958 123.755 45.7892 123.448C45.4826 123.142 44.9855 123.142 44.6789 123.448L39.6824 128.445ZM81.4688 283.101H82.2539V149.937H81.4688H80.6837V283.101H81.4688ZM60.5323 129V128.215H40.2375V129V129.785H60.5323V129ZM123.597 303.02L123.581 302.235L102.22 302.661L102.236 303.446L102.252 304.231L123.612 303.805L123.597 303.02ZM81.4688 149.937H82.2539C82.2539 137.94 72.5288 128.215 60.5323 128.215V129V129.785C71.6616 129.785 80.6837 138.807 80.6837 149.937H81.4688ZM81.4688 283.101H80.6837C80.6837 294.944 90.4125 304.475 102.252 304.231L102.236 303.446L102.22 302.661C91.2599 302.887 82.2539 294.064 82.2539 283.101H81.4688Z" fill="#A4A7AE"/>
<path d="M250.826 286.402L125.488 224.018C124.38 223.466 123.679 222.335 123.679 221.097V215.751L250.918 155.633C252.389 154.938 254.094 154.938 255.564 155.633L382.803 215.751V222.199C382.803 223.027 382.334 223.783 381.592 224.149L255.66 286.409C254.136 287.162 252.348 287.16 250.826 286.402Z" fill="#3B34CB"/>
<path d="M126.764 210.918L249.428 150.811C251.833 149.632 254.649 149.632 257.055 150.811L379.718 210.918C383.788 212.912 383.776 218.717 379.698 220.694L257.022 280.178C254.635 281.336 251.848 281.336 249.46 280.178L126.784 220.694C122.707 218.717 122.695 212.912 126.764 210.918Z" fill="#F2F1FF"/>
</svg>
