<svg width="20" height="20" viewBox="0 0 20 20" fill="none" xmlns="http://www.w3.org/2000/svg">
<path d="M2.5 2.5L6.66667 7.5" stroke="#414651" stroke-width="1.5" stroke-linecap="round" stroke-linejoin="round"/>
<path d="M17.5007 2.5L13.334 7.5" stroke="#414651" stroke-width="1.5" stroke-linecap="round" stroke-linejoin="round"/>
<path d="M12.9173 1.66675L10.834 6.66675" stroke="#414651" stroke-width="1.5" stroke-linecap="round" stroke-linejoin="round"/>
<path d="M7.08398 1.66675L9.16732 6.66675" stroke="#414651" stroke-width="1.5" stroke-linecap="round" stroke-linejoin="round"/>
<path d="M9.99935 18.3334C13.221 18.3334 15.8327 15.7217 15.8327 12.5001C15.8327 9.27842 13.221 6.66675 9.99935 6.66675C6.77769 6.66675 4.16602 9.27842 4.16602 12.5001C4.16602 15.7217 6.77769 18.3334 9.99935 18.3334Z" stroke="#414651" stroke-width="1.5"/>
<path d="M10.0007 15.4166C11.6115 15.4166 12.9173 14.1107 12.9173 12.4999C12.9173 10.8891 11.6115 9.58325 10.0007 9.58325C8.38982 9.58325 7.08398 10.8891 7.08398 12.4999C7.08398 14.1107 8.38982 15.4166 10.0007 15.4166Z" stroke="#414651" stroke-width="1.5"/>
</svg>
