<svg width="1920" height="970" viewBox="0 0 1920 970" fill="none" xmlns="http://www.w3.org/2000/svg">
<g clip-path="url(#clip0_582_3940)">
<line x1="0.5" y1="2.18557e-08" x2="0.499965" y2="805.722" stroke="#F3F4F7"/>
<line x1="40.3613" y1="2.18557e-08" x2="40.3613" y2="805.722" stroke="#F3F4F7"/>
<line x1="80.2227" y1="2.18557e-08" x2="80.2226" y2="805.722" stroke="#F3F4F7"/>
<line x1="120.084" y1="2.18557e-08" x2="120.084" y2="805.722" stroke="#F3F4F7"/>
<line x1="159.945" y1="2.18557e-08" x2="159.945" y2="805.722" stroke="#F3F4F7"/>
<line x1="199.805" y1="2.18557e-08" x2="199.805" y2="805.722" stroke="#F3F4F7"/>
<line x1="239.666" y1="2.18557e-08" x2="239.666" y2="805.722" stroke="#F3F4F7"/>
<line x1="279.527" y1="2.18557e-08" x2="279.527" y2="805.722" stroke="#F3F4F7"/>
<line x1="319.389" y1="2.18557e-08" x2="319.389" y2="805.722" stroke="#F3F4F7"/>
<line x1="359.25" y1="2.18557e-08" x2="359.25" y2="805.722" stroke="#F3F4F7"/>
<line x1="399.111" y1="2.18557e-08" x2="399.111" y2="805.722" stroke="#F3F4F7"/>
<line x1="438.973" y1="2.18557e-08" x2="438.973" y2="805.722" stroke="#F3F4F7"/>
<line x1="478.834" y1="2.18557e-08" x2="478.834" y2="805.722" stroke="#F3F4F7"/>
<line x1="518.695" y1="2.18557e-08" x2="518.695" y2="805.722" stroke="#F3F4F7"/>
<line x1="558.555" y1="2.18557e-08" x2="558.555" y2="805.722" stroke="#F3F4F7"/>
<line x1="598.416" y1="2.18557e-08" x2="598.416" y2="805.722" stroke="#F3F4F7"/>
<line x1="638.277" y1="2.18557e-08" x2="638.277" y2="805.722" stroke="#F3F4F7"/>
<line x1="678.139" y1="2.18557e-08" x2="678.139" y2="805.722" stroke="#F3F4F7"/>
<line x1="718" y1="2.18557e-08" x2="718" y2="805.722" stroke="#F3F4F7"/>
<line x1="757.861" y1="2.18557e-08" x2="757.861" y2="805.722" stroke="#F3F4F7"/>
<line x1="797.723" y1="2.18557e-08" x2="797.723" y2="805.722" stroke="#F3F4F7"/>
<line x1="837.584" y1="2.18557e-08" x2="837.584" y2="805.722" stroke="#F3F4F7"/>
<line x1="877.443" y1="2.18557e-08" x2="877.443" y2="805.722" stroke="#F3F4F7"/>
<line x1="917.305" y1="2.18557e-08" x2="917.305" y2="805.722" stroke="#F3F4F7"/>
<line x1="957.166" y1="2.18557e-08" x2="957.166" y2="805.722" stroke="#F3F4F7"/>
<line x1="997.027" y1="2.18557e-08" x2="997.027" y2="805.722" stroke="#F3F4F7"/>
<line x1="1036.89" y1="2.18557e-08" x2="1036.89" y2="805.722" stroke="#F3F4F7"/>
<line x1="1076.75" y1="2.18557e-08" x2="1076.75" y2="805.722" stroke="#F3F4F7"/>
<line x1="1116.61" y1="2.18557e-08" x2="1116.61" y2="805.722" stroke="#F3F4F7"/>
<line x1="1156.47" y1="2.18557e-08" x2="1156.47" y2="805.722" stroke="#F3F4F7"/>
<line x1="1196.33" y1="2.18557e-08" x2="1196.33" y2="805.722" stroke="#F3F4F7"/>
<line x1="1236.19" y1="2.18557e-08" x2="1236.19" y2="805.722" stroke="#F3F4F7"/>
<line x1="1276.05" y1="2.18557e-08" x2="1276.05" y2="805.722" stroke="#F3F4F7"/>
<line x1="1315.92" y1="2.18557e-08" x2="1315.92" y2="805.722" stroke="#F3F4F7"/>
<line x1="1355.78" y1="2.18557e-08" x2="1355.78" y2="805.722" stroke="#F3F4F7"/>
<line x1="1395.64" y1="2.18557e-08" x2="1395.64" y2="805.722" stroke="#F3F4F7"/>
<line x1="1435.5" y1="2.18557e-08" x2="1435.5" y2="805.722" stroke="#F3F4F7"/>
<line x1="1435" y1="0.5" x2="0.000122027" y2="0.499875" stroke="#F3F4F7"/>
<line x1="1435" y1="40.3623" x2="0.000122027" y2="40.3622" stroke="#F3F4F7"/>
<line x1="1435" y1="80.2256" x2="0.000122027" y2="80.2255" stroke="#F3F4F7"/>
<line x1="1435" y1="120.088" x2="0.000122027" y2="120.088" stroke="#F3F4F7"/>
<line x1="1435" y1="159.95" x2="0.000122027" y2="159.95" stroke="#F3F4F7"/>
<line x1="1435" y1="199.812" x2="0.000122027" y2="199.812" stroke="#F3F4F7"/>
<line x1="1435" y1="239.676" x2="0.000122027" y2="239.676" stroke="#F3F4F7"/>
<line x1="1435" y1="279.538" x2="0.000122027" y2="279.538" stroke="#F3F4F7"/>
<line x1="1435" y1="319.4" x2="0.000122027" y2="319.4" stroke="#F3F4F7"/>
<line x1="1435" y1="359.263" x2="0.000122027" y2="359.263" stroke="#F3F4F7"/>
<line x1="1435" y1="399.126" x2="0.000122027" y2="399.126" stroke="#F3F4F7"/>
<line x1="1435" y1="438.988" x2="0.000122027" y2="438.988" stroke="#F3F4F7"/>
<line x1="1435" y1="478.851" x2="0.000122027" y2="478.85" stroke="#F3F4F7"/>
<line x1="1435" y1="518.713" x2="0.000122027" y2="518.713" stroke="#F3F4F7"/>
<line x1="1435" y1="558.576" x2="0.000122027" y2="558.576" stroke="#F3F4F7"/>
<line x1="1435" y1="598.438" x2="0.000122027" y2="598.438" stroke="#F3F4F7"/>
<line x1="1435" y1="638.301" x2="0.000122027" y2="638.301" stroke="#F3F4F7"/>
<line x1="1435" y1="678.163" x2="0.000122027" y2="678.163" stroke="#F3F4F7"/>
<line x1="1435" y1="718.025" x2="0.000122027" y2="718.025" stroke="#F3F4F7"/>
<line x1="1435" y1="757.889" x2="0.000122027" y2="757.889" stroke="#F3F4F7"/>
<line x1="1435" y1="797.751" x2="0.000122027" y2="797.751" stroke="#F3F4F7"/>
<line x1="1435" y1="837.613" x2="0.000122027" y2="837.613" stroke="#F3F4F7"/>
<line x1="1435" y1="877.477" x2="0.000122027" y2="877.476" stroke="#F3F4F7"/>
<line x1="1435" y1="917.339" x2="0.000122027" y2="917.339" stroke="#F3F4F7"/>
<line x1="1435" y1="957.201" x2="0.000122027" y2="957.201" stroke="#F3F4F7"/>
<rect x="119.582" y="40.3604" width="39.612" height="39.6134" fill="#F6F7F9"/>
<rect x="239.168" y="199.562" width="39.612" height="39.6134" fill="#F6F7F9"/>
<rect x="358.75" y="279.535" width="39.612" height="39.6134" fill="#F6F7F9"/>
<rect x="1275.8" y="79.9736" width="39.612" height="39.6134" fill="#F6F7F9"/>
<rect x="1156.22" y="159.2" width="39.612" height="39.6134" fill="#F6F7F9"/>
<path d="M1235.45 279.535H1275.06V319.149H1235.45V279.535Z" fill="#F6F7F9"/>
<rect x="1076.25" y="358.763" width="39.612" height="39.6134" fill="#F6F7F9"/>
<rect x="1195.83" y="438.736" width="39.612" height="39.6134" fill="#F6F7F9"/>
<rect x="1315.42" y="518.711" width="39.612" height="39.6134" fill="#F6F7F9"/>
<rect x="1156.22" y="717.525" width="39.612" height="39.6134" fill="#F6F7F9"/>
<rect x="119.582" y="438.736" width="39.612" height="39.6134" fill="#F6F7F9"/>
<rect x="239.168" y="518.711" width="39.612" height="39.6134" fill="#F6F7F9"/>
<rect x="79.9727" y="637.551" width="39.612" height="39.6134" fill="#F6F7F9"/>
<rect y="757.886" width="39.612" height="39.6134" fill="#F6F7F9"/>
<rect x="358.75" y="438.736" width="39.612" height="39.6134" fill="#F6F7F9"/>
<line x1="1435.5" y1="2.18557e-08" x2="1435.5" y2="805.722" stroke="#F3F4F7"/>
<line x1="1475.36" y1="2.18557e-08" x2="1475.36" y2="805.722" stroke="#F3F4F7"/>
<line x1="1515.22" y1="2.18557e-08" x2="1515.22" y2="805.722" stroke="#F3F4F7"/>
<line x1="1555.08" y1="2.18557e-08" x2="1555.08" y2="805.722" stroke="#F3F4F7"/>
<line x1="1594.95" y1="2.18557e-08" x2="1594.95" y2="805.722" stroke="#F3F4F7"/>
<line x1="1634.8" y1="2.18557e-08" x2="1634.8" y2="805.722" stroke="#F3F4F7"/>
<line x1="1674.67" y1="2.18557e-08" x2="1674.67" y2="805.722" stroke="#F3F4F7"/>
<line x1="1714.53" y1="2.18557e-08" x2="1714.53" y2="805.722" stroke="#F3F4F7"/>
<line x1="1754.39" y1="2.18557e-08" x2="1754.39" y2="805.722" stroke="#F3F4F7"/>
<line x1="1794.25" y1="2.18557e-08" x2="1794.25" y2="805.722" stroke="#F3F4F7"/>
<line x1="1834.11" y1="2.18557e-08" x2="1834.11" y2="805.722" stroke="#F3F4F7"/>
<line x1="1873.97" y1="2.18557e-08" x2="1873.97" y2="805.722" stroke="#F3F4F7"/>
<line x1="1913.83" y1="2.18557e-08" x2="1913.83" y2="805.722" stroke="#F3F4F7"/>
<line x1="2870" y1="0.5" x2="1435" y2="0.499875" stroke="#F3F4F7"/>
<line x1="2870" y1="40.3623" x2="1435" y2="40.3622" stroke="#F3F4F7"/>
<line x1="2870" y1="80.2256" x2="1435" y2="80.2255" stroke="#F3F4F7"/>
<line x1="2870" y1="120.088" x2="1435" y2="120.088" stroke="#F3F4F7"/>
<line x1="2870" y1="159.95" x2="1435" y2="159.95" stroke="#F3F4F7"/>
<line x1="2870" y1="199.812" x2="1435" y2="199.812" stroke="#F3F4F7"/>
<line x1="2870" y1="239.676" x2="1435" y2="239.676" stroke="#F3F4F7"/>
<line x1="2870" y1="279.538" x2="1435" y2="279.538" stroke="#F3F4F7"/>
<line x1="2870" y1="319.4" x2="1435" y2="319.4" stroke="#F3F4F7"/>
<line x1="2870" y1="359.263" x2="1435" y2="359.263" stroke="#F3F4F7"/>
<line x1="2870" y1="399.126" x2="1435" y2="399.126" stroke="#F3F4F7"/>
<line x1="2870" y1="438.988" x2="1435" y2="438.988" stroke="#F3F4F7"/>
<line x1="2870" y1="478.851" x2="1435" y2="478.85" stroke="#F3F4F7"/>
<line x1="2870" y1="518.713" x2="1435" y2="518.713" stroke="#F3F4F7"/>
<line x1="2870" y1="558.576" x2="1435" y2="558.576" stroke="#F3F4F7"/>
<line x1="2870" y1="598.438" x2="1435" y2="598.438" stroke="#F3F4F7"/>
<line x1="2870" y1="638.301" x2="1435" y2="638.301" stroke="#F3F4F7"/>
<line x1="2870" y1="678.163" x2="1435" y2="678.163" stroke="#F3F4F7"/>
<line x1="2870" y1="718.025" x2="1435" y2="718.025" stroke="#F3F4F7"/>
<line x1="2870" y1="757.889" x2="1435" y2="757.889" stroke="#F3F4F7"/>
<line x1="2870" y1="797.751" x2="1435" y2="797.751" stroke="#F3F4F7"/>
<line x1="2870" y1="837.613" x2="1435" y2="837.613" stroke="#F3F4F7"/>
<line x1="2870" y1="877.477" x2="1435" y2="877.476" stroke="#F3F4F7"/>
<line x1="2870" y1="917.339" x2="1435" y2="917.339" stroke="#F3F4F7"/>
<line x1="2870" y1="957.201" x2="1435" y2="957.201" stroke="#F3F4F7"/>
<rect x="1554.58" y="40.3604" width="39.612" height="39.6134" fill="#F6F7F9"/>
<rect x="1674.17" y="199.562" width="39.612" height="39.6134" fill="#F6F7F9"/>
<rect x="1793.75" y="279.535" width="39.612" height="39.6134" fill="#F6F7F9"/>
<rect x="1554.58" y="438.736" width="39.612" height="39.6134" fill="#F6F7F9"/>
<rect x="1674.17" y="518.711" width="39.612" height="39.6134" fill="#F6F7F9"/>
<rect x="1514.97" y="637.551" width="39.612" height="39.6134" fill="#F6F7F9"/>
<rect x="1435" y="757.886" width="39.612" height="39.6134" fill="#F6F7F9"/>
<rect x="1793.75" y="438.736" width="39.612" height="39.6134" fill="#F6F7F9"/>
<rect width="1920" height="970" fill="url(#paint0_linear_582_3940)"/>
<rect width="1920" height="970" fill="url(#paint1_radial_582_3940)"/>
</g>
<defs>
<linearGradient id="paint0_linear_582_3940" x1="960" y1="0" x2="960" y2="1093.05" gradientUnits="userSpaceOnUse">
<stop offset="0.428561" stop-color="white" stop-opacity="0"/>
<stop offset="1" stop-color="white"/>
</linearGradient>
<radialGradient id="paint1_radial_582_3940" cx="0" cy="0" r="1" gradientUnits="userSpaceOnUse" gradientTransform="translate(960 226.5) rotate(90) scale(866.546 1715.23)">
<stop stop-color="white"/>
<stop offset="0.730862" stop-color="white" stop-opacity="0"/>
</radialGradient>
<clipPath id="clip0_582_3940">
<rect width="1920" height="970" fill="white"/>
</clipPath>
</defs>
</svg>
