<svg width="92" height="91" viewBox="0 0 92 91" fill="none" xmlns="http://www.w3.org/2000/svg">
<g filter="url(#filter0_d_582_5128)">
<rect x="3.5" y="1" width="85" height="85" rx="30" fill="url(#paint0_linear_582_5128)" shape-rendering="crispEdges"/>
<g clip-path="url(#clip0_582_5128)">
<g clip-path="url(#clip1_582_5128)">
<path d="M61.6543 50.0259C63.3219 51.7186 64.0742 53.5617 63.8108 55.7308C63.6353 57.1853 63.0084 58.4517 61.9552 59.4798C60.6512 60.7462 59.0714 61.3731 57.2533 61.3229C55.4478 61.2728 53.9683 60.5079 52.5765 59.1538C52.2254 63.304 50.2319 65.9872 46.0566 65.9872C41.8939 65.9872 39.8752 63.3291 39.5367 59.1538C37.8064 60.8339 35.9131 61.5862 33.6687 61.2477C32.2394 61.0345 31.0106 60.3951 30.0076 59.3419C28.7663 58.0379 28.1644 56.4706 28.2271 54.6651C28.2898 52.8972 29.0296 51.4177 30.3837 50.0635C30.0452 49.9883 29.8446 49.9256 29.644 49.9131C26.6348 49.7626 24.1772 47.6562 23.613 44.7347C23.0488 41.8133 24.5283 38.9295 27.2993 37.7007C28.014 37.3873 28.8164 37.2995 29.5938 37.124C29.7819 37.0738 29.995 37.0864 30.3586 37.0613C27.688 33.9016 27.199 30.5915 30.1455 27.645C33.092 24.686 36.4021 25.1624 39.5994 27.8707C39.637 25.4383 40.452 23.545 42.3076 22.2034C43.4612 21.3633 44.7652 20.9746 46.1945 21.0123C48 21.0624 49.5172 21.752 50.7459 23.0685C51.9621 24.36 52.4637 25.9398 52.4762 27.8331C56.0496 24.9994 59.435 24.7863 62.5319 28.2719C63.6228 29.5132 63.9738 31.0805 63.8234 32.7356C63.6729 34.3781 62.9457 35.7573 61.6417 37.0111C65.9047 37.3873 68.5879 39.4436 68.5127 43.6815C68.45 47.7439 65.8044 49.7124 61.6543 50.0259ZM33.5559 38.2274C33.5308 38.29 33.4932 38.3653 33.4681 38.428C33.6061 38.5534 33.7565 38.6913 33.8944 38.8041C34.7972 39.5564 35.725 40.2711 36.5776 41.061C38.1199 42.4653 38.1324 44.5592 36.6027 45.9635C35.7501 46.7534 34.8097 47.4681 33.9195 48.2204C33.7565 48.3583 33.6186 48.5088 33.4681 48.6467C33.4932 48.6968 33.5183 48.7595 33.5434 48.8097C33.7314 48.7972 33.9321 48.7972 34.1201 48.7721C35.2862 48.6718 36.4523 48.5213 37.6183 48.4712C39.7373 48.3834 41.2168 49.8629 41.1165 51.9819C41.0664 53.1229 40.9034 54.2639 40.803 55.4174C40.7905 55.618 40.803 55.8311 40.803 56.0443C40.8532 56.0694 40.9159 56.0819 40.966 56.107C41.104 55.944 41.2544 55.781 41.3923 55.618C42.1572 54.7027 42.8844 53.7623 43.6869 52.8846C45.1288 51.3299 47.0095 51.3424 48.4389 52.8972C49.2539 53.7874 49.9936 54.7528 50.771 55.6807C50.8964 55.8311 51.0594 55.9565 51.2098 56.0819C51.26 56.0568 51.3102 56.0192 51.3478 55.9941C51.3227 55.7685 51.3102 55.5553 51.2851 55.3296C51.1848 54.1259 51.0218 52.9223 50.9842 51.706C50.9089 49.725 52.2881 48.3708 54.2692 48.4586C55.523 48.5213 56.7643 48.6718 58.0181 48.7721C58.2062 48.7846 58.3943 48.7721 58.5698 48.7721C58.5824 48.7219 58.6074 48.6592 58.62 48.6091C58.4695 48.4837 58.3316 48.3458 58.1811 48.2204C57.2784 47.4681 56.3506 46.7659 55.4854 45.976C53.9683 44.5843 53.9432 42.528 55.4353 41.1112C56.3004 40.2962 57.2533 39.5815 58.1686 38.8167C58.3316 38.6787 58.457 38.5283 58.6074 38.3778C58.5824 38.3277 58.5573 38.2775 58.5322 38.2148C58.3191 38.2274 58.1059 38.2399 57.8928 38.265C56.7267 38.3653 55.5732 38.5283 54.3946 38.5659C52.3759 38.6411 50.9215 37.1867 50.9842 35.168C51.0218 34.027 51.1848 32.886 51.2725 31.7325C51.2976 31.4817 51.2725 31.231 51.2725 30.9927C51.2224 30.9677 51.1597 30.9551 51.1095 30.9301C50.9716 31.0931 50.8337 31.2561 50.6958 31.4191C49.8682 32.397 49.0909 33.4001 48.2257 34.3279C46.9719 35.6445 45.0786 35.6445 43.8373 34.3154C42.9722 33.3876 42.1823 32.372 41.3673 31.4065C41.2294 31.2435 41.0914 31.0931 40.941 30.9301C40.8783 30.9551 40.8281 30.9802 40.7654 31.0053C40.778 31.2561 40.778 31.5068 40.803 31.7576C40.9034 32.9863 41.0664 34.2151 41.104 35.4439C41.1667 37.2494 39.8125 38.6286 38.007 38.5659C36.7156 38.5283 35.4241 38.3527 34.1452 38.2524C33.9571 38.2524 33.7565 38.2399 33.5559 38.2274Z" fill="#1A1A1A"/>
</g>
</g>
</g>
<defs>
<filter id="filter0_d_582_5128" x="0.5" y="0" width="91" height="91" filterUnits="userSpaceOnUse" color-interpolation-filters="sRGB">
<feFlood flood-opacity="0" result="BackgroundImageFix"/>
<feColorMatrix in="SourceAlpha" type="matrix" values="0 0 0 0 0 0 0 0 0 0 0 0 0 0 0 0 0 0 127 0" result="hardAlpha"/>
<feOffset dy="2"/>
<feGaussianBlur stdDeviation="1.5"/>
<feComposite in2="hardAlpha" operator="out"/>
<feColorMatrix type="matrix" values="0 0 0 0 0 0 0 0 0 0 0 0 0 0 0.2 0 0 0 0.05 0"/>
<feBlend mode="normal" in2="BackgroundImageFix" result="effect1_dropShadow_582_5128"/>
<feBlend mode="normal" in="SourceGraphic" in2="effect1_dropShadow_582_5128" result="shape"/>
</filter>
<linearGradient id="paint0_linear_582_5128" x1="46" y1="1" x2="46" y2="86" gradientUnits="userSpaceOnUse">
<stop stop-color="#B8FF33"/>
<stop offset="1" stop-color="#DBFF99"/>
</linearGradient>
<clipPath id="clip0_582_5128">
<rect width="45" height="45" fill="white" transform="translate(23.5 21)"/>
</clipPath>
<clipPath id="clip1_582_5128">
<rect width="45.0251" height="45" fill="white" transform="translate(23.5 21)"/>
</clipPath>
</defs>
</svg>
