<svg width="45" height="45" viewBox="0 0 45 45" fill="none" xmlns="http://www.w3.org/2000/svg">
<g clip-path="url(#clip0_582_5240)">
<g clip-path="url(#clip1_582_5240)">
<path d="M38.1543 29.0259C39.8219 30.7186 40.5742 32.5617 40.3108 34.7308C40.1353 36.1853 39.5084 37.4517 38.4552 38.4798C37.1512 39.7462 35.5714 40.3731 33.7533 40.3229C31.9478 40.2728 30.4683 39.5079 29.0765 38.1538C28.7254 42.304 26.7319 44.9872 22.5566 44.9872C18.3939 44.9872 16.3752 42.3291 16.0367 38.1538C14.3064 39.8339 12.4131 40.5862 10.1687 40.2477C8.73938 40.0345 7.51063 39.3951 6.50756 38.3419C5.26627 37.0379 4.66443 35.4706 4.72712 33.6651C4.78981 31.8972 5.52957 30.4177 6.88371 29.0635C6.54518 28.9883 6.34456 28.9256 6.14395 28.9131C3.13476 28.7626 0.677248 26.6562 0.113024 23.7347C-0.4512 20.8133 1.02832 17.9295 3.79929 16.7007C4.51397 16.3873 5.31642 16.2995 6.0938 16.124C6.28187 16.0738 6.49502 16.0864 6.85864 16.0613C4.18798 12.9016 3.69898 9.59152 6.64548 6.64502C9.59199 3.68598 12.9021 4.16243 16.0994 6.87071C16.137 4.43828 16.952 2.54499 18.8076 1.20339C19.9612 0.363326 21.2652 -0.0253622 22.6945 0.0122527C24.5 0.062406 26.0172 0.752013 27.2459 2.06854C28.4621 3.35998 28.9637 4.93981 28.9762 6.83309C32.5496 3.99944 35.935 3.78628 39.0319 7.27194C40.1228 8.51323 40.4738 10.0805 40.3234 11.7356C40.1729 13.3781 39.4457 14.7573 38.1417 16.0111C42.4047 16.3873 45.0879 18.4436 45.0127 22.6815C44.95 26.7439 42.3044 28.7124 38.1543 29.0259ZM10.0559 17.2274C10.0308 17.29 9.99321 17.3653 9.96814 17.428C10.1061 17.5534 10.2565 17.6913 10.3944 17.8041C11.2972 18.5564 12.225 19.2711 13.0776 20.061C14.6199 21.4653 14.6324 23.5592 13.1027 24.9635C12.2501 25.7534 11.3097 26.4681 10.4195 27.2204C10.2565 27.3583 10.1186 27.5088 9.96814 27.6467C9.99321 27.6968 10.0183 27.7595 10.0434 27.8097C10.2314 27.7972 10.4321 27.7972 10.6201 27.7721C11.7862 27.6718 12.9523 27.5213 14.1183 27.4712C16.2373 27.3834 17.7168 28.8629 17.6165 30.9819C17.5664 32.1229 17.4034 33.2639 17.303 34.4174C17.2905 34.618 17.303 34.8311 17.303 35.0443C17.3532 35.0694 17.4159 35.0819 17.466 35.107C17.604 34.944 17.7544 34.781 17.8923 34.618C18.6572 33.7027 19.3844 32.7623 20.1869 31.8846C21.6288 30.3299 23.5095 30.3424 24.9389 31.8972C25.7539 32.7874 26.4936 33.7528 27.271 34.6807C27.3964 34.8311 27.5594 34.9565 27.7098 35.0819C27.76 35.0568 27.8102 35.0192 27.8478 34.9941C27.8227 34.7685 27.8102 34.5553 27.7851 34.3296C27.6848 33.1259 27.5218 31.9223 27.4842 30.706C27.4089 28.725 28.7881 27.3708 30.7692 27.4586C32.023 27.5213 33.2643 27.6718 34.5181 27.7721C34.7062 27.7846 34.8943 27.7721 35.0698 27.7721C35.0824 27.7219 35.1074 27.6592 35.12 27.6091C34.9695 27.4837 34.8316 27.3458 34.6811 27.2204C33.7784 26.4681 32.8506 25.7659 31.9854 24.976C30.4683 23.5843 30.4432 21.528 31.9353 20.1112C32.8004 19.2962 33.7533 18.5815 34.6686 17.8167C34.8316 17.6787 34.957 17.5283 35.1074 17.3778C35.0824 17.3277 35.0573 17.2775 35.0322 17.2148C34.8191 17.2274 34.6059 17.2399 34.3928 17.265C33.2267 17.3653 32.0732 17.5283 30.8946 17.5659C28.8759 17.6411 27.4215 16.1867 27.4842 14.168C27.5218 13.027 27.6848 11.886 27.7725 10.7325C27.7976 10.4817 27.7725 10.231 27.7725 9.99275C27.7224 9.96767 27.6597 9.95513 27.6095 9.93006C27.4716 10.0931 27.3337 10.2561 27.1958 10.4191C26.3682 11.397 25.5909 12.4001 24.7257 13.3279C23.4719 14.6445 21.5786 14.6445 20.3373 13.3154C19.4722 12.3876 18.6823 11.372 17.8673 10.4065C17.7294 10.2435 17.5914 10.0931 17.441 9.93006C17.3783 9.95513 17.3281 9.98021 17.2654 10.0053C17.278 10.2561 17.278 10.5068 17.303 10.7576C17.4034 11.9863 17.5664 13.2151 17.604 14.4439C17.6667 16.2494 16.3125 17.6286 14.507 17.5659C13.2156 17.5283 11.9241 17.3527 10.6452 17.2524C10.4571 17.2524 10.2565 17.2399 10.0559 17.2274Z" fill="white"/>
</g>
</g>
<defs>
<clipPath id="clip0_582_5240">
<rect width="45" height="45" fill="white"/>
</clipPath>
<clipPath id="clip1_582_5240">
<rect width="45.0251" height="45" fill="white"/>
</clipPath>
</defs>
</svg>
