<svg width="360" height="505" viewBox="0 0 360 505" fill="none" xmlns="http://www.w3.org/2000/svg">
<rect width="360" height="495" transform="translate(0 5)" fill="white"/>
<path d="M178.082 478.606L58.3511 419.012C57.2923 418.485 56.623 417.404 56.623 416.221V411.115L178.17 353.686C179.575 353.022 181.204 353.022 182.609 353.686L304.156 411.115V417.275C304.156 418.065 303.707 418.787 302.999 419.137L182.699 478.612C181.244 479.331 179.536 479.329 178.082 478.606Z" fill="#0A0D12"/>
<path d="M59.57 406.498L176.747 349.08C179.045 347.954 181.734 347.954 184.032 349.08L301.209 406.498C305.096 408.402 305.085 413.948 301.189 415.837L184.001 472.66C181.72 473.766 179.058 473.766 176.777 472.66L59.5893 415.837C55.6939 413.948 55.6824 408.402 59.57 406.498Z" fill="#5048ED"/>
<path d="M178.082 414.147L58.3511 354.553C57.2923 354.026 56.623 352.945 56.623 351.762V346.656L178.17 289.227C179.575 288.563 181.204 288.563 182.609 289.227L304.156 346.656V352.816C304.156 353.606 303.707 354.328 302.999 354.678L182.699 414.153C181.244 414.872 179.536 414.87 178.082 414.147Z" fill="#100D71"/>
<path d="M59.57 342.039L176.747 284.621C179.045 283.495 181.734 283.495 184.032 284.621L301.209 342.039C305.096 343.943 305.085 349.489 301.189 351.378L184.001 408.201C181.72 409.307 179.058 409.307 176.777 408.201L59.5893 351.378C55.6939 349.489 55.6824 343.943 59.57 342.039Z" fill="#7B74F4"/>
<path d="M178.082 349.687L58.3511 290.093C57.2923 289.566 56.623 288.486 56.623 287.303V282.196L178.17 224.768C179.575 224.104 181.204 224.104 182.609 224.768L304.156 282.196V288.357C304.156 289.147 303.707 289.869 302.999 290.219L182.699 349.694C181.244 350.413 179.536 350.411 178.082 349.687Z" fill="#100D71"/>
<path d="M59.57 277.579L176.747 220.162C179.045 219.036 181.734 219.036 184.032 220.162L301.209 277.579C305.096 279.484 305.085 285.03 301.189 286.918L184.001 343.741C181.72 344.847 179.058 344.847 176.777 343.741L59.5893 286.918C55.6939 285.03 55.6824 279.484 59.57 277.579Z" fill="#BBB6FD"/>
<path d="M178.082 285.228L58.3511 225.634C57.2923 225.107 56.623 224.027 56.623 222.844V217.737L178.17 160.309C179.575 159.645 181.204 159.645 182.609 160.309L304.156 217.737V223.898C304.156 224.688 303.707 225.41 302.999 225.76L182.699 285.235C181.244 285.954 179.536 285.952 178.082 285.228Z" fill="#1A1689"/>
<path d="M59.57 213.12L176.747 155.703C179.045 154.577 181.734 154.577 184.032 155.703L301.209 213.12C305.096 215.025 305.085 220.571 301.189 222.459L184.001 279.282C181.72 280.388 179.058 280.388 176.777 279.282L59.5893 222.459C55.6939 220.571 55.6824 215.025 59.57 213.12Z" fill="#DDDAFE"/>
<path d="M178.082 220.769L58.3511 161.175C57.2923 160.648 56.623 159.568 56.623 158.385V153.278L178.17 95.85C179.575 95.1862 181.204 95.1862 182.609 95.85L304.156 153.278V159.439C304.156 160.229 303.707 160.951 302.999 161.301L182.699 220.776C181.244 221.495 179.536 221.493 178.082 220.769Z" fill="#2924AA"/>
<path d="M59.57 148.662L176.747 91.244C179.045 90.1179 181.734 90.118 184.032 91.244L301.209 148.662C305.096 150.567 305.085 156.112 301.189 158.001L184.001 214.824C181.72 215.93 179.058 215.93 176.777 214.824L59.5893 158.001C55.6939 156.112 55.6824 150.567 59.57 148.662Z" fill="#EAE8FF"/>
<path d="M178.082 156.311L58.3511 96.7167C57.2923 96.1897 56.623 95.109 56.623 93.9263V88.8197L178.17 31.3913C179.575 30.7275 181.204 30.7275 182.609 31.3913L304.156 88.8197V94.9798C304.156 95.7703 303.707 96.4922 302.999 96.8425L182.699 156.317C181.244 157.036 179.536 157.034 178.082 156.311Z" fill="#3B34CB"/>
<path d="M59.57 84.2026L176.747 26.785C179.045 25.659 181.734 25.659 184.032 26.785L301.209 84.2026C305.096 86.1076 305.085 91.6529 301.189 93.5417L184.001 150.365C181.72 151.471 179.058 151.471 176.777 150.365L59.5893 93.5417C55.6939 91.6529 55.6824 86.1075 59.57 84.2026Z" fill="#F2F1FF"/>
<path d="M180.103 142.845L175.164 132.438L176.696 131.711L181.635 142.118L180.103 142.845ZM178.804 138.167L178.207 136.909L183.931 134.193L184.528 135.45L178.804 138.167ZM176.513 133.339L175.916 132.081L182.03 129.18L182.627 130.437L176.513 133.339ZM191.581 137.576C190.839 137.928 190.106 138.075 189.382 138.017C188.668 137.955 188.014 137.71 187.422 137.283C186.83 136.855 186.355 136.266 185.998 135.514C185.637 134.753 185.476 134.015 185.514 133.3C185.558 132.571 185.788 131.912 186.206 131.324C186.624 130.737 187.199 130.269 187.931 129.921C188.644 129.583 189.334 129.444 190.001 129.506C190.673 129.553 191.276 129.78 191.812 130.187C192.357 130.59 192.806 131.162 193.158 131.904C193.213 132.02 193.261 132.133 193.301 132.243C193.347 132.34 193.385 132.445 193.416 132.561L187.23 135.497L186.695 134.369L191.826 131.934L191.663 132.56C191.288 131.77 190.824 131.252 190.271 131.007C189.717 130.762 189.123 130.79 188.487 131.092C187.803 131.417 187.37 131.911 187.19 132.576C187.014 133.226 187.123 133.965 187.516 134.794C187.914 135.632 188.422 136.194 189.042 136.479C189.67 136.759 190.341 136.729 191.055 136.391C191.488 136.185 191.823 135.92 192.059 135.596C192.29 135.262 192.4 134.885 192.39 134.465L193.806 133.792C193.894 134.601 193.743 135.339 193.353 136.009C192.972 136.674 192.381 137.196 191.581 137.576ZM201.017 132.921C200.882 132.76 200.752 132.574 200.628 132.362C200.513 132.145 200.38 131.877 200.229 131.559L200.157 131.593L198.49 128.081C198.266 127.609 197.979 127.314 197.628 127.197C197.282 127.066 196.854 127.121 196.343 127.364C195.852 127.597 195.503 127.881 195.295 128.215C195.098 128.545 195.059 128.9 195.18 129.279L193.749 129.959C193.488 129.233 193.538 128.53 193.9 127.85C194.262 127.171 194.911 126.609 195.846 126.166C196.809 125.708 197.639 125.592 198.336 125.816C199.028 126.031 199.58 126.572 199.992 127.439L201.631 130.894C201.737 131.115 201.858 131.335 201.997 131.552C202.136 131.77 202.296 131.995 202.477 132.228L201.017 132.921ZM198.542 134.273C197.79 134.629 197.106 134.73 196.489 134.574C195.867 134.408 195.405 134.008 195.103 133.372C194.792 132.716 194.779 132.091 195.063 131.496C195.352 130.886 195.904 130.306 196.716 129.755L198.96 128.212L199.46 129.267L197.428 130.657C196.973 130.967 196.664 131.273 196.5 131.575C196.346 131.873 196.351 132.195 196.516 132.542C196.676 132.879 196.908 133.082 197.212 133.15C197.521 133.204 197.892 133.128 198.326 132.923C198.904 132.648 199.315 132.282 199.558 131.824C199.811 131.362 199.837 130.919 199.636 130.495L200.331 131.475C200.4 132.068 200.279 132.61 199.969 133.1C199.653 133.58 199.178 133.971 198.542 134.273ZM207.249 130.14C206.391 130.547 205.667 130.649 205.074 130.446C204.487 130.229 204.008 129.73 203.638 128.95L200.393 122.112L201.615 120.842L205.134 128.258C205.317 128.643 205.553 128.879 205.842 128.966C206.131 129.053 206.502 128.989 206.955 128.775C207.129 128.692 207.276 128.605 207.397 128.512C207.518 128.419 207.618 128.33 207.696 128.246L208.272 129.46C208.189 129.559 208.058 129.668 207.879 129.788C207.7 129.909 207.49 130.026 207.249 130.14ZM200.291 125.703L199.721 124.503L204.781 122.102L205.35 123.302L200.291 125.703ZM212.074 127.851C211.582 128.084 211.101 128.189 210.629 128.165C210.152 128.131 209.721 127.981 209.335 127.716C208.959 127.446 208.659 127.074 208.435 126.602L206.02 121.514L207.524 120.801L209.774 125.542C210.016 126.053 210.322 126.374 210.691 126.506C211.061 126.637 211.477 126.593 211.939 126.374C212.354 126.177 212.674 125.907 212.901 125.563C213.137 125.215 213.267 124.829 213.29 124.405C213.318 123.966 213.224 123.521 213.009 123.068L214.034 124.742C214.049 125.396 213.884 126.006 213.539 126.571C213.198 127.123 212.71 127.549 212.074 127.851ZM214.679 126.437L213.856 124.703L213.798 124.73L211.123 119.093L212.612 118.386L216.11 125.758L214.679 126.437ZM218.216 124.759L214.718 117.387L216.149 116.708L217.02 118.543L217.093 118.509L219.72 124.045L218.216 124.759ZM217.895 120.2L216.877 118.54C216.753 117.832 216.826 117.213 217.094 116.684C217.363 116.155 217.791 115.751 218.379 115.472C218.6 115.367 218.764 115.313 218.869 115.311L219.541 116.727C219.484 116.731 219.412 116.753 219.325 116.794C219.234 116.826 219.125 116.871 219 116.931C218.277 117.274 217.822 117.72 217.634 118.27C217.456 118.815 217.543 119.458 217.895 120.2ZM226.787 120.869C226.045 121.221 225.312 121.368 224.588 121.31C223.873 121.248 223.22 121.003 222.628 120.576C222.035 120.148 221.561 119.559 221.204 118.807C220.843 118.046 220.681 117.308 220.72 116.593C220.764 115.864 220.994 115.205 221.412 114.617C221.829 114.03 222.404 113.562 223.137 113.214C223.85 112.876 224.54 112.737 225.207 112.799C225.878 112.846 226.482 113.073 227.018 113.48C227.563 113.883 228.011 114.455 228.364 115.197C228.418 115.313 228.466 115.426 228.507 115.536C228.553 115.633 228.591 115.738 228.622 115.854L222.435 118.79L221.9 117.662L227.032 115.227L226.869 115.853C226.494 115.063 226.029 114.545 225.476 114.3C224.923 114.055 224.328 114.083 223.692 114.385C223.008 114.71 222.576 115.204 222.395 115.869C222.22 116.519 222.328 117.258 222.722 118.087C223.12 118.925 223.628 119.487 224.247 119.772C224.876 120.052 225.547 120.022 226.26 119.684C226.694 119.478 227.029 119.213 227.264 118.889C227.495 118.555 227.606 118.178 227.595 117.758L229.012 117.085C229.1 117.894 228.949 118.632 228.558 119.302C228.177 119.967 227.587 120.489 226.787 120.869ZM236.6 116.035L232.341 107.058L232.67 107.043C232.673 107.373 232.582 107.74 232.397 108.147C232.212 108.554 231.963 108.949 231.65 109.334C231.332 109.709 230.965 110.043 230.548 110.335L229.849 108.86C230.241 108.592 230.596 108.27 230.913 107.895C231.227 107.51 231.478 107.107 231.668 106.686C231.854 106.256 231.953 105.855 231.965 105.483L233.15 104.92L238.089 115.328L236.6 116.035Z" fill="#262626"/>
<path d="M180.103 209.845L175.164 199.438L176.696 198.711L181.635 209.118L180.103 209.845ZM178.804 205.167L178.207 203.909L183.931 201.193L184.528 202.45L178.804 205.167ZM176.513 200.339L175.916 199.081L182.03 196.18L182.627 197.437L176.513 200.339ZM191.581 204.576C190.839 204.928 190.106 205.075 189.382 205.017C188.668 204.955 188.014 204.71 187.422 204.283C186.83 203.855 186.355 203.266 185.998 202.514C185.637 201.753 185.476 201.015 185.514 200.3C185.558 199.571 185.788 198.912 186.206 198.324C186.624 197.737 187.199 197.269 187.931 196.921C188.644 196.583 189.334 196.444 190.001 196.506C190.673 196.553 191.276 196.78 191.812 197.187C192.357 197.59 192.806 198.162 193.158 198.904C193.213 199.02 193.261 199.133 193.301 199.243C193.347 199.34 193.385 199.445 193.416 199.561L187.23 202.497L186.695 201.369L191.826 198.934L191.663 199.56C191.288 198.77 190.824 198.252 190.271 198.007C189.717 197.762 189.123 197.79 188.487 198.092C187.803 198.417 187.37 198.911 187.19 199.576C187.014 200.226 187.123 200.965 187.516 201.794C187.914 202.632 188.422 203.194 189.042 203.479C189.67 203.759 190.341 203.729 191.055 203.391C191.488 203.185 191.823 202.92 192.059 202.596C192.29 202.262 192.4 201.885 192.39 201.465L193.806 200.792C193.894 201.601 193.743 202.339 193.353 203.009C192.972 203.674 192.381 204.196 191.581 204.576ZM201.017 199.921C200.882 199.76 200.752 199.574 200.628 199.362C200.513 199.145 200.38 198.877 200.229 198.559L200.157 198.593L198.49 195.081C198.266 194.609 197.979 194.314 197.628 194.197C197.282 194.066 196.854 194.121 196.343 194.364C195.852 194.597 195.503 194.881 195.295 195.215C195.098 195.545 195.059 195.9 195.18 196.279L193.749 196.959C193.488 196.233 193.538 195.53 193.9 194.85C194.262 194.171 194.911 193.609 195.846 193.166C196.809 192.708 197.639 192.592 198.336 192.816C199.028 193.031 199.58 193.572 199.992 194.439L201.631 197.894C201.737 198.115 201.858 198.335 201.997 198.552C202.136 198.77 202.296 198.995 202.477 199.228L201.017 199.921ZM198.542 201.273C197.79 201.629 197.106 201.73 196.489 201.574C195.867 201.408 195.405 201.008 195.103 200.372C194.792 199.716 194.779 199.091 195.063 198.496C195.352 197.886 195.904 197.306 196.716 196.755L198.96 195.212L199.46 196.267L197.428 197.657C196.973 197.967 196.664 198.273 196.5 198.575C196.346 198.873 196.351 199.195 196.516 199.542C196.676 199.879 196.908 200.082 197.212 200.15C197.521 200.204 197.892 200.128 198.326 199.923C198.904 199.648 199.315 199.282 199.558 198.824C199.811 198.362 199.837 197.919 199.636 197.495L200.331 198.475C200.4 199.068 200.279 199.61 199.969 200.1C199.653 200.58 199.178 200.971 198.542 201.273ZM207.249 197.14C206.391 197.547 205.667 197.649 205.074 197.446C204.487 197.229 204.008 196.73 203.638 195.95L200.393 189.112L201.615 187.842L205.134 195.258C205.317 195.643 205.553 195.879 205.842 195.966C206.131 196.053 206.502 195.989 206.955 195.775C207.129 195.692 207.276 195.605 207.397 195.512C207.518 195.419 207.618 195.33 207.696 195.246L208.272 196.46C208.189 196.559 208.058 196.668 207.879 196.788C207.7 196.909 207.49 197.026 207.249 197.14ZM200.291 192.703L199.721 191.503L204.781 189.102L205.35 190.302L200.291 192.703ZM212.074 194.851C211.582 195.084 211.101 195.189 210.629 195.165C210.152 195.131 209.721 194.981 209.335 194.716C208.959 194.446 208.659 194.074 208.435 193.602L206.02 188.514L207.524 187.801L209.774 192.542C210.016 193.053 210.322 193.374 210.691 193.506C211.061 193.637 211.477 193.593 211.939 193.374C212.354 193.177 212.674 192.907 212.901 192.563C213.137 192.215 213.267 191.829 213.29 191.405C213.318 190.966 213.224 190.521 213.009 190.068L214.034 191.742C214.049 192.396 213.884 193.006 213.539 193.571C213.198 194.123 212.71 194.549 212.074 194.851ZM214.679 193.437L213.856 191.703L213.798 191.73L211.123 186.093L212.612 185.386L216.11 192.758L214.679 193.437ZM218.216 191.759L214.718 184.387L216.149 183.708L217.02 185.543L217.093 185.509L219.72 191.045L218.216 191.759ZM217.895 187.2L216.877 185.54C216.753 184.832 216.826 184.213 217.094 183.684C217.363 183.155 217.791 182.751 218.379 182.472C218.6 182.367 218.764 182.313 218.869 182.311L219.541 183.727C219.484 183.731 219.412 183.753 219.325 183.794C219.234 183.826 219.125 183.871 219 183.931C218.277 184.274 217.822 184.72 217.634 185.27C217.456 185.815 217.543 186.458 217.895 187.2ZM226.787 187.869C226.045 188.221 225.312 188.368 224.588 188.31C223.873 188.248 223.22 188.003 222.628 187.576C222.035 187.148 221.561 186.559 221.204 185.807C220.843 185.046 220.681 184.308 220.72 183.593C220.764 182.864 220.994 182.205 221.412 181.617C221.829 181.03 222.404 180.562 223.137 180.214C223.85 179.876 224.54 179.737 225.207 179.799C225.878 179.846 226.482 180.073 227.018 180.48C227.563 180.883 228.011 181.455 228.364 182.197C228.418 182.313 228.466 182.426 228.507 182.536C228.553 182.633 228.591 182.738 228.622 182.854L222.435 185.79L221.9 184.662L227.032 182.227L226.869 182.853C226.494 182.063 226.029 181.545 225.476 181.3C224.923 181.055 224.328 181.083 223.692 181.385C223.008 181.71 222.576 182.204 222.395 182.869C222.22 183.519 222.328 184.258 222.722 185.087C223.12 185.925 223.628 186.487 224.247 186.772C224.876 187.052 225.547 187.022 226.26 186.684C226.694 186.478 227.029 186.213 227.264 185.889C227.495 185.555 227.606 185.178 227.595 184.758L229.012 184.085C229.1 184.894 228.949 185.632 228.558 186.302C228.177 186.967 227.587 187.489 226.787 187.869ZM234.042 184.249L233.445 182.991C234.064 181.682 234.564 180.559 234.946 179.622C235.337 178.681 235.621 177.873 235.797 177.199C235.973 176.526 236.054 175.95 236.04 175.472C236.026 174.995 235.925 174.559 235.738 174.164C235.482 173.624 235.124 173.28 234.664 173.132C234.209 172.97 233.707 173.02 233.158 173.28C232.59 173.55 232.207 173.938 232.011 174.445C231.809 174.942 231.81 175.514 232.011 176.163L230.45 176.903C230.094 175.904 230.101 174.961 230.472 174.077C230.853 173.188 231.578 172.489 232.648 171.982C233.67 171.497 234.602 171.385 235.446 171.646C236.3 171.902 236.951 172.502 237.399 173.446C237.627 173.928 237.765 174.453 237.81 175.022C237.861 175.577 237.807 176.21 237.649 176.923C237.487 177.625 237.212 178.452 236.825 179.403C236.444 180.34 235.939 181.442 235.312 182.707L234.717 182.387L240.557 179.616L241.154 180.874L234.042 184.249Z" fill="#262626"/>
<path d="M180.103 273.845L175.164 263.438L176.696 262.711L181.635 273.118L180.103 273.845ZM178.804 269.167L178.207 267.909L183.931 265.193L184.528 266.45L178.804 269.167ZM176.513 264.339L175.916 263.081L182.03 260.18L182.627 261.437L176.513 264.339ZM191.581 268.576C190.839 268.928 190.106 269.075 189.382 269.017C188.668 268.955 188.014 268.71 187.422 268.283C186.83 267.855 186.355 267.266 185.998 266.514C185.637 265.753 185.476 265.015 185.514 264.3C185.558 263.571 185.788 262.912 186.206 262.324C186.624 261.737 187.199 261.269 187.931 260.921C188.644 260.583 189.334 260.444 190.001 260.506C190.673 260.553 191.276 260.78 191.812 261.187C192.357 261.59 192.806 262.162 193.158 262.904C193.213 263.02 193.261 263.133 193.301 263.243C193.347 263.34 193.385 263.445 193.416 263.561L187.23 266.497L186.695 265.369L191.826 262.934L191.663 263.56C191.288 262.77 190.824 262.252 190.271 262.007C189.717 261.762 189.123 261.79 188.487 262.092C187.803 262.417 187.37 262.911 187.19 263.576C187.014 264.226 187.123 264.965 187.516 265.794C187.914 266.632 188.422 267.194 189.042 267.479C189.67 267.759 190.341 267.729 191.055 267.391C191.488 267.185 191.823 266.92 192.059 266.596C192.29 266.262 192.4 265.885 192.39 265.465L193.806 264.792C193.894 265.601 193.743 266.339 193.353 267.009C192.972 267.674 192.381 268.196 191.581 268.576ZM201.017 263.921C200.882 263.76 200.752 263.574 200.628 263.362C200.513 263.145 200.38 262.877 200.229 262.559L200.157 262.593L198.49 259.081C198.266 258.609 197.979 258.314 197.628 258.197C197.282 258.066 196.854 258.121 196.343 258.364C195.852 258.597 195.503 258.881 195.295 259.215C195.098 259.545 195.059 259.9 195.18 260.279L193.749 260.959C193.488 260.233 193.538 259.53 193.9 258.85C194.262 258.171 194.911 257.609 195.846 257.166C196.809 256.708 197.639 256.592 198.336 256.816C199.028 257.031 199.58 257.572 199.992 258.439L201.631 261.894C201.737 262.115 201.858 262.335 201.997 262.552C202.136 262.77 202.296 262.995 202.477 263.228L201.017 263.921ZM198.542 265.273C197.79 265.629 197.106 265.73 196.489 265.574C195.867 265.408 195.405 265.008 195.103 264.372C194.792 263.716 194.779 263.091 195.063 262.496C195.352 261.886 195.904 261.306 196.716 260.755L198.96 259.212L199.46 260.267L197.428 261.657C196.973 261.967 196.664 262.273 196.5 262.575C196.346 262.873 196.351 263.195 196.516 263.542C196.676 263.879 196.908 264.082 197.212 264.15C197.521 264.204 197.892 264.128 198.326 263.923C198.904 263.648 199.315 263.282 199.558 262.824C199.811 262.362 199.837 261.919 199.636 261.495L200.331 262.475C200.4 263.068 200.279 263.61 199.969 264.1C199.653 264.58 199.178 264.971 198.542 265.273ZM207.249 261.14C206.391 261.547 205.667 261.649 205.074 261.446C204.487 261.229 204.008 260.73 203.638 259.95L200.393 253.112L201.615 251.842L205.134 259.258C205.317 259.643 205.553 259.879 205.842 259.966C206.131 260.053 206.502 259.989 206.955 259.775C207.129 259.692 207.276 259.605 207.397 259.512C207.518 259.419 207.618 259.33 207.696 259.246L208.272 260.46C208.189 260.559 208.058 260.668 207.879 260.788C207.7 260.909 207.49 261.026 207.249 261.14ZM200.291 256.703L199.721 255.503L204.781 253.102L205.35 254.302L200.291 256.703ZM212.074 258.851C211.582 259.084 211.101 259.189 210.629 259.165C210.152 259.131 209.721 258.981 209.335 258.716C208.959 258.446 208.659 258.074 208.435 257.602L206.02 252.514L207.524 251.801L209.774 256.542C210.016 257.053 210.322 257.374 210.691 257.506C211.061 257.637 211.477 257.593 211.939 257.374C212.354 257.177 212.674 256.907 212.901 256.563C213.137 256.215 213.267 255.829 213.29 255.405C213.318 254.966 213.224 254.521 213.009 254.068L214.034 255.742C214.049 256.396 213.884 257.006 213.539 257.571C213.198 258.123 212.71 258.549 212.074 258.851ZM214.679 257.437L213.856 255.703L213.798 255.73L211.123 250.093L212.612 249.386L216.11 256.758L214.679 257.437ZM218.216 255.759L214.718 248.387L216.149 247.708L217.02 249.543L217.093 249.509L219.72 255.045L218.216 255.759ZM217.895 251.2L216.877 249.54C216.753 248.832 216.826 248.213 217.094 247.684C217.363 247.155 217.791 246.751 218.379 246.472C218.6 246.367 218.764 246.313 218.869 246.311L219.541 247.727C219.484 247.731 219.412 247.753 219.325 247.794C219.234 247.826 219.125 247.871 219 247.931C218.277 248.274 217.822 248.72 217.634 249.27C217.456 249.815 217.543 250.458 217.895 251.2ZM226.787 251.869C226.045 252.221 225.312 252.368 224.588 252.31C223.873 252.248 223.22 252.003 222.628 251.576C222.035 251.148 221.561 250.559 221.204 249.807C220.843 249.046 220.681 248.308 220.72 247.593C220.764 246.864 220.994 246.205 221.412 245.617C221.829 245.03 222.404 244.562 223.137 244.214C223.85 243.876 224.54 243.737 225.207 243.799C225.878 243.846 226.482 244.073 227.018 244.48C227.563 244.883 228.011 245.455 228.364 246.197C228.418 246.313 228.466 246.426 228.507 246.536C228.553 246.633 228.591 246.738 228.622 246.854L222.435 249.79L221.9 248.662L227.032 246.227L226.869 246.853C226.494 246.063 226.029 245.545 225.476 245.3C224.923 245.055 224.328 245.083 223.692 245.385C223.008 245.71 222.576 246.204 222.395 246.869C222.22 247.519 222.328 248.258 222.722 249.087C223.12 249.925 223.628 250.487 224.247 250.772C224.876 251.052 225.547 251.022 226.26 250.684C226.694 250.478 227.029 250.213 227.264 249.889C227.495 249.555 227.606 249.178 227.595 248.758L229.012 248.085C229.1 248.894 228.949 249.632 228.558 250.302C228.177 250.967 227.587 251.489 226.787 251.869ZM237.898 246.596C237.185 246.934 236.492 247.104 235.819 247.104C235.156 247.1 234.539 246.932 233.968 246.601C233.403 246.255 232.912 245.744 232.497 245.068L234.073 244.32C234.494 244.959 234.977 245.367 235.522 245.545C236.062 245.714 236.646 245.649 237.272 245.352C237.85 245.078 238.237 244.699 238.433 244.217C238.629 243.734 238.595 243.213 238.329 242.654C238.06 242.086 237.671 241.703 237.165 241.507C236.658 241.31 236.092 241.361 235.466 241.658L234.295 242.213L233.712 240.985L234.839 240.45C235.398 240.184 235.761 239.829 235.928 239.384C236.094 238.939 236.061 238.471 235.828 237.979C235.59 237.478 235.255 237.159 234.824 237.021C234.388 236.874 233.891 236.933 233.332 237.198C232.811 237.445 232.436 237.812 232.207 238.299C231.987 238.781 231.978 239.334 232.18 239.958L230.604 240.706C230.374 240.048 230.306 239.419 230.4 238.82C230.498 238.206 230.748 237.651 231.15 237.153C231.561 236.651 232.104 236.24 232.778 235.92C233.443 235.604 234.074 235.441 234.671 235.429C235.277 235.413 235.813 235.548 236.28 235.834C236.756 236.116 237.126 236.537 237.392 237.095C237.62 237.577 237.713 238.059 237.67 238.54C237.626 239.021 237.472 239.454 237.206 239.84C236.946 240.212 236.594 240.502 236.151 240.713L235.949 240.437C236.508 240.172 237.049 240.068 237.573 240.127C238.101 240.171 238.577 240.352 239 240.671C239.418 240.98 239.756 241.405 240.012 241.945C240.295 242.542 240.39 243.14 240.297 243.74C240.208 244.325 239.959 244.868 239.548 245.37C239.132 245.863 238.582 246.271 237.898 246.596Z" fill="#262626"/>
<path d="M180.103 339.845L175.164 329.438L176.696 328.711L181.635 339.118L180.103 339.845ZM178.804 335.167L178.207 333.909L183.931 331.193L184.528 332.45L178.804 335.167ZM176.513 330.339L175.916 329.081L182.03 326.18L182.627 327.437L176.513 330.339ZM191.581 334.576C190.839 334.928 190.106 335.075 189.382 335.017C188.668 334.955 188.014 334.71 187.422 334.283C186.83 333.855 186.355 333.266 185.998 332.514C185.637 331.753 185.476 331.015 185.514 330.3C185.558 329.571 185.788 328.912 186.206 328.324C186.624 327.737 187.199 327.269 187.931 326.921C188.644 326.583 189.334 326.444 190.001 326.506C190.673 326.553 191.276 326.78 191.812 327.187C192.357 327.59 192.806 328.162 193.158 328.904C193.213 329.02 193.261 329.133 193.301 329.243C193.347 329.34 193.385 329.445 193.416 329.561L187.23 332.497L186.695 331.369L191.826 328.934L191.663 329.56C191.288 328.77 190.824 328.252 190.271 328.007C189.717 327.762 189.123 327.79 188.487 328.092C187.803 328.417 187.37 328.911 187.19 329.576C187.014 330.226 187.123 330.965 187.516 331.794C187.914 332.632 188.422 333.194 189.042 333.479C189.67 333.759 190.341 333.729 191.055 333.391C191.488 333.185 191.823 332.92 192.059 332.596C192.29 332.262 192.4 331.885 192.39 331.465L193.806 330.792C193.894 331.601 193.743 332.339 193.353 333.009C192.972 333.674 192.381 334.196 191.581 334.576ZM201.017 329.921C200.882 329.76 200.752 329.574 200.628 329.362C200.513 329.145 200.38 328.877 200.229 328.559L200.157 328.593L198.49 325.081C198.266 324.609 197.979 324.314 197.628 324.197C197.282 324.066 196.854 324.121 196.343 324.364C195.852 324.597 195.503 324.881 195.295 325.215C195.098 325.545 195.059 325.9 195.18 326.279L193.749 326.959C193.488 326.233 193.538 325.53 193.9 324.85C194.262 324.171 194.911 323.609 195.846 323.166C196.809 322.708 197.639 322.592 198.336 322.816C199.028 323.031 199.58 323.572 199.992 324.439L201.631 327.894C201.737 328.115 201.858 328.335 201.997 328.552C202.136 328.77 202.296 328.995 202.477 329.228L201.017 329.921ZM198.542 331.273C197.79 331.629 197.106 331.73 196.489 331.574C195.867 331.408 195.405 331.008 195.103 330.372C194.792 329.716 194.779 329.091 195.063 328.496C195.352 327.886 195.904 327.306 196.716 326.755L198.96 325.212L199.46 326.267L197.428 327.657C196.973 327.967 196.664 328.273 196.5 328.575C196.346 328.873 196.351 329.195 196.516 329.542C196.676 329.879 196.908 330.082 197.212 330.15C197.521 330.204 197.892 330.128 198.326 329.923C198.904 329.648 199.315 329.282 199.558 328.824C199.811 328.362 199.837 327.919 199.636 327.495L200.331 328.475C200.4 329.068 200.279 329.61 199.969 330.1C199.653 330.58 199.178 330.971 198.542 331.273ZM207.249 327.14C206.391 327.547 205.667 327.649 205.074 327.446C204.487 327.229 204.008 326.73 203.638 325.95L200.393 319.112L201.615 317.842L205.134 325.258C205.317 325.643 205.553 325.879 205.842 325.966C206.131 326.053 206.502 325.989 206.955 325.775C207.129 325.692 207.276 325.605 207.397 325.512C207.518 325.419 207.618 325.33 207.696 325.246L208.272 326.46C208.189 326.559 208.058 326.668 207.879 326.788C207.7 326.909 207.49 327.026 207.249 327.14ZM200.291 322.703L199.721 321.503L204.781 319.102L205.35 320.302L200.291 322.703ZM212.074 324.851C211.582 325.084 211.101 325.189 210.629 325.165C210.152 325.131 209.721 324.981 209.335 324.716C208.959 324.446 208.659 324.074 208.435 323.602L206.02 318.514L207.524 317.801L209.774 322.542C210.016 323.053 210.322 323.374 210.691 323.506C211.061 323.637 211.477 323.593 211.939 323.374C212.354 323.177 212.674 322.907 212.901 322.563C213.137 322.215 213.267 321.829 213.29 321.405C213.318 320.966 213.224 320.521 213.009 320.068L214.034 321.742C214.049 322.396 213.884 323.006 213.539 323.571C213.198 324.123 212.71 324.549 212.074 324.851ZM214.679 323.437L213.856 321.703L213.798 321.73L211.123 316.093L212.612 315.386L216.11 322.758L214.679 323.437ZM218.216 321.759L214.718 314.387L216.149 313.708L217.02 315.543L217.093 315.509L219.72 321.045L218.216 321.759ZM217.895 317.2L216.877 315.54C216.753 314.832 216.826 314.213 217.094 313.684C217.363 313.155 217.791 312.751 218.379 312.472C218.6 312.367 218.764 312.313 218.869 312.311L219.541 313.727C219.484 313.731 219.412 313.753 219.325 313.794C219.234 313.826 219.125 313.871 219 313.931C218.277 314.274 217.822 314.72 217.634 315.27C217.456 315.815 217.543 316.458 217.895 317.2ZM226.787 317.869C226.045 318.221 225.312 318.368 224.588 318.31C223.873 318.248 223.22 318.003 222.628 317.576C222.035 317.148 221.561 316.559 221.204 315.807C220.843 315.046 220.681 314.308 220.72 313.593C220.764 312.864 220.994 312.205 221.412 311.617C221.829 311.03 222.404 310.562 223.137 310.214C223.85 309.876 224.54 309.737 225.207 309.799C225.878 309.846 226.482 310.073 227.018 310.48C227.563 310.883 228.011 311.455 228.364 312.197C228.418 312.313 228.466 312.426 228.507 312.536C228.553 312.633 228.591 312.738 228.622 312.854L222.435 315.79L221.9 314.662L227.032 312.227L226.869 312.853C226.494 312.063 226.029 311.545 225.476 311.3C224.923 311.055 224.328 311.083 223.692 311.385C223.008 311.71 222.576 312.204 222.395 312.869C222.22 313.519 222.328 314.258 222.722 315.087C223.12 315.925 223.628 316.487 224.247 316.772C224.876 317.052 225.547 317.022 226.26 316.684C226.694 316.478 227.029 316.213 227.264 315.889C227.495 315.555 227.606 315.178 227.595 314.758L229.012 314.085C229.1 314.894 228.949 315.632 228.558 316.302C228.177 316.967 227.587 317.489 226.787 317.869ZM239.116 311.841L237.812 309.094L237.733 308.778L234.914 302.837L235.538 302.735L233.987 310.662L233.127 310.379L240.267 306.991L240.864 308.248L232.914 312.021L232.358 310.85L234.234 301.406L235.752 300.686L240.691 311.093L239.116 311.841Z" fill="#262626"/>
<path d="M180.103 403.845L175.164 393.438L176.696 392.711L181.635 403.118L180.103 403.845ZM178.804 399.167L178.207 397.909L183.931 395.193L184.528 396.45L178.804 399.167ZM176.513 394.339L175.916 393.081L182.03 390.18L182.627 391.437L176.513 394.339ZM191.581 398.576C190.839 398.928 190.106 399.075 189.382 399.017C188.668 398.955 188.014 398.71 187.422 398.283C186.83 397.855 186.355 397.266 185.998 396.514C185.637 395.753 185.476 395.015 185.514 394.3C185.558 393.571 185.788 392.912 186.206 392.324C186.624 391.737 187.199 391.269 187.931 390.921C188.644 390.583 189.334 390.444 190.001 390.506C190.673 390.553 191.276 390.78 191.812 391.187C192.357 391.59 192.806 392.162 193.158 392.904C193.213 393.02 193.261 393.133 193.301 393.243C193.347 393.34 193.385 393.445 193.416 393.561L187.23 396.497L186.695 395.369L191.826 392.934L191.663 393.56C191.288 392.77 190.824 392.252 190.271 392.007C189.717 391.762 189.123 391.79 188.487 392.092C187.803 392.417 187.37 392.911 187.19 393.576C187.014 394.226 187.123 394.965 187.516 395.794C187.914 396.632 188.422 397.194 189.042 397.479C189.67 397.759 190.341 397.729 191.055 397.391C191.488 397.185 191.823 396.92 192.059 396.596C192.29 396.262 192.4 395.885 192.39 395.465L193.806 394.792C193.894 395.601 193.743 396.339 193.353 397.009C192.972 397.674 192.381 398.196 191.581 398.576ZM201.017 393.921C200.882 393.76 200.752 393.574 200.628 393.362C200.513 393.145 200.38 392.877 200.229 392.559L200.157 392.593L198.49 389.081C198.266 388.609 197.979 388.314 197.628 388.197C197.282 388.066 196.854 388.121 196.343 388.364C195.852 388.597 195.503 388.881 195.295 389.215C195.098 389.545 195.059 389.9 195.18 390.279L193.749 390.959C193.488 390.233 193.538 389.53 193.9 388.85C194.262 388.171 194.911 387.609 195.846 387.166C196.809 386.708 197.639 386.592 198.336 386.816C199.028 387.031 199.58 387.572 199.992 388.439L201.631 391.894C201.737 392.115 201.858 392.335 201.997 392.552C202.136 392.77 202.296 392.995 202.477 393.228L201.017 393.921ZM198.542 395.273C197.79 395.629 197.106 395.73 196.489 395.574C195.867 395.408 195.405 395.008 195.103 394.372C194.792 393.716 194.779 393.091 195.063 392.496C195.352 391.886 195.904 391.306 196.716 390.755L198.96 389.212L199.46 390.267L197.428 391.657C196.973 391.967 196.664 392.273 196.5 392.575C196.346 392.873 196.351 393.195 196.516 393.542C196.676 393.879 196.908 394.082 197.212 394.15C197.521 394.204 197.892 394.128 198.326 393.923C198.904 393.648 199.315 393.282 199.558 392.824C199.811 392.362 199.837 391.919 199.636 391.495L200.331 392.475C200.4 393.068 200.279 393.61 199.969 394.1C199.653 394.58 199.178 394.971 198.542 395.273ZM207.249 391.14C206.391 391.547 205.667 391.649 205.074 391.446C204.487 391.229 204.008 390.73 203.638 389.95L200.393 383.112L201.615 381.842L205.134 389.258C205.317 389.643 205.553 389.879 205.842 389.966C206.131 390.053 206.502 389.989 206.955 389.775C207.129 389.692 207.276 389.605 207.397 389.512C207.518 389.419 207.618 389.33 207.696 389.246L208.272 390.46C208.189 390.559 208.058 390.668 207.879 390.788C207.7 390.909 207.49 391.026 207.249 391.14ZM200.291 386.703L199.721 385.503L204.781 383.102L205.35 384.302L200.291 386.703ZM212.074 388.851C211.582 389.084 211.101 389.189 210.629 389.165C210.152 389.131 209.721 388.981 209.335 388.716C208.959 388.446 208.659 388.074 208.435 387.602L206.02 382.514L207.524 381.801L209.774 386.542C210.016 387.053 210.322 387.374 210.691 387.506C211.061 387.637 211.477 387.593 211.939 387.374C212.354 387.177 212.674 386.907 212.901 386.563C213.137 386.215 213.267 385.829 213.29 385.405C213.318 384.966 213.224 384.521 213.009 384.068L214.034 385.742C214.049 386.396 213.884 387.006 213.539 387.571C213.198 388.123 212.71 388.549 212.074 388.851ZM214.679 387.437L213.856 385.703L213.798 385.73L211.123 380.093L212.612 379.386L216.11 386.758L214.679 387.437ZM218.216 385.759L214.718 378.387L216.149 377.708L217.02 379.543L217.093 379.509L219.72 385.045L218.216 385.759ZM217.895 381.2L216.877 379.54C216.753 378.832 216.826 378.213 217.094 377.684C217.363 377.155 217.791 376.751 218.379 376.472C218.6 376.367 218.764 376.313 218.869 376.311L219.541 377.727C219.484 377.731 219.412 377.753 219.325 377.794C219.234 377.826 219.125 377.871 219 377.931C218.277 378.274 217.822 378.72 217.634 379.27C217.456 379.815 217.543 380.458 217.895 381.2ZM226.787 381.869C226.045 382.221 225.312 382.368 224.588 382.31C223.873 382.248 223.22 382.003 222.628 381.576C222.035 381.148 221.561 380.559 221.204 379.807C220.843 379.046 220.681 378.308 220.72 377.593C220.764 376.864 220.994 376.205 221.412 375.617C221.829 375.03 222.404 374.562 223.137 374.214C223.85 373.876 224.54 373.737 225.207 373.799C225.878 373.846 226.482 374.073 227.018 374.48C227.563 374.883 228.011 375.455 228.364 376.197C228.418 376.313 228.466 376.426 228.507 376.536C228.553 376.633 228.591 376.738 228.622 376.854L222.435 379.79L221.9 378.662L227.032 376.227L226.869 376.853C226.494 376.063 226.029 375.545 225.476 375.3C224.923 375.055 224.328 375.083 223.692 375.385C223.008 375.71 222.576 376.204 222.395 376.869C222.22 377.519 222.328 378.258 222.722 379.087C223.12 379.925 223.628 380.487 224.247 380.772C224.876 381.052 225.547 381.022 226.26 380.684C226.694 380.478 227.029 380.213 227.264 379.889C227.495 379.555 227.606 379.178 227.595 378.758L229.012 378.085C229.1 378.894 228.949 379.632 228.558 380.302C228.177 380.967 227.587 381.489 226.787 381.869ZM237.84 376.623C236.789 377.122 235.816 377.247 234.919 377C234.018 376.743 233.278 376.191 232.699 375.344L234.274 374.596C234.655 375.1 235.109 375.422 235.636 375.562C236.158 375.692 236.679 375.633 237.2 375.386C237.759 375.121 238.141 374.721 238.348 374.186C238.56 373.637 238.483 372.977 238.117 372.206C237.756 371.445 237.295 370.961 236.737 370.754C236.173 370.537 235.598 370.568 235.01 370.847C234.615 371.034 234.304 371.288 234.078 371.608C233.848 371.918 233.729 372.24 233.722 372.574L232.334 373.232L230.158 367.34L235.81 364.658L236.407 365.916L231.478 368.255L231.985 367.607L233.52 371.625L233.052 371.723C233.09 371.304 233.248 370.904 233.528 370.523C233.813 370.128 234.235 369.798 234.794 369.533C235.439 369.226 236.079 369.094 236.713 369.136C237.346 369.177 237.927 369.392 238.453 369.78C238.979 370.167 239.412 370.718 239.75 371.431C240.098 372.163 240.246 372.861 240.194 373.523C240.152 374.18 239.927 374.777 239.52 375.312C239.123 375.843 238.563 376.28 237.84 376.623Z" fill="white"/>
<path d="M179.103 468.845L174.164 458.438L175.696 457.711L180.635 468.118L179.103 468.845ZM177.804 464.167L177.207 462.909L182.931 460.193L183.528 461.45L177.804 464.167ZM175.513 459.339L174.916 458.081L181.03 455.18L181.627 456.437L175.513 459.339ZM190.581 463.576C189.839 463.928 189.106 464.075 188.382 464.017C187.668 463.955 187.014 463.71 186.422 463.283C185.83 462.855 185.355 462.266 184.998 461.514C184.637 460.753 184.476 460.015 184.514 459.3C184.558 458.571 184.788 457.912 185.206 457.324C185.624 456.737 186.199 456.269 186.931 455.921C187.644 455.583 188.334 455.444 189.001 455.506C189.673 455.553 190.276 455.78 190.812 456.187C191.357 456.59 191.806 457.162 192.158 457.904C192.213 458.02 192.261 458.133 192.301 458.243C192.347 458.34 192.385 458.445 192.416 458.561L186.23 461.497L185.695 460.369L190.826 457.934L190.663 458.56C190.288 457.77 189.824 457.252 189.271 457.007C188.717 456.762 188.123 456.79 187.487 457.092C186.803 457.417 186.37 457.911 186.19 458.576C186.014 459.226 186.123 459.965 186.516 460.794C186.914 461.632 187.422 462.194 188.042 462.479C188.67 462.759 189.341 462.729 190.055 462.391C190.488 462.185 190.823 461.92 191.059 461.596C191.29 461.262 191.4 460.885 191.39 460.465L192.806 459.792C192.894 460.601 192.743 461.339 192.353 462.009C191.972 462.674 191.381 463.196 190.581 463.576ZM200.017 458.921C199.882 458.76 199.752 458.574 199.628 458.362C199.513 458.145 199.38 457.877 199.229 457.559L199.157 457.593L197.49 454.081C197.266 453.609 196.979 453.314 196.628 453.197C196.282 453.066 195.854 453.121 195.343 453.364C194.852 453.597 194.503 453.881 194.295 454.215C194.098 454.545 194.059 454.9 194.18 455.279L192.749 455.959C192.488 455.233 192.538 454.53 192.9 453.85C193.262 453.171 193.911 452.609 194.846 452.166C195.809 451.708 196.639 451.592 197.336 451.816C198.028 452.031 198.58 452.572 198.992 453.439L200.631 456.894C200.737 457.115 200.858 457.335 200.997 457.552C201.136 457.77 201.296 457.995 201.477 458.228L200.017 458.921ZM197.542 460.273C196.79 460.629 196.106 460.73 195.489 460.574C194.867 460.408 194.405 460.008 194.103 459.372C193.792 458.716 193.779 458.091 194.063 457.496C194.352 456.886 194.904 456.306 195.716 455.755L197.96 454.212L198.46 455.267L196.428 456.657C195.973 456.967 195.664 457.273 195.5 457.575C195.346 457.873 195.351 458.195 195.516 458.542C195.676 458.879 195.908 459.082 196.212 459.15C196.521 459.204 196.892 459.128 197.326 458.923C197.904 458.648 198.315 458.282 198.558 457.824C198.811 457.362 198.837 456.919 198.636 456.495L199.331 457.475C199.4 458.068 199.279 458.61 198.969 459.1C198.653 459.58 198.178 459.971 197.542 460.273ZM206.249 456.14C205.391 456.547 204.667 456.649 204.074 456.446C203.487 456.229 203.008 455.73 202.638 454.95L199.393 448.112L200.615 446.842L204.134 454.258C204.317 454.643 204.553 454.879 204.842 454.966C205.131 455.053 205.502 454.989 205.955 454.775C206.129 454.692 206.276 454.605 206.397 454.512C206.518 454.419 206.618 454.33 206.696 454.246L207.272 455.46C207.189 455.559 207.058 455.668 206.879 455.788C206.7 455.909 206.49 456.026 206.249 456.14ZM199.291 451.703L198.721 450.503L203.781 448.102L204.35 449.302L199.291 451.703ZM211.074 453.851C210.582 454.084 210.101 454.189 209.629 454.165C209.152 454.131 208.721 453.981 208.335 453.716C207.959 453.446 207.659 453.074 207.435 452.602L205.02 447.514L206.524 446.801L208.774 451.542C209.016 452.053 209.322 452.374 209.691 452.506C210.061 452.637 210.477 452.593 210.939 452.374C211.354 452.177 211.674 451.907 211.901 451.563C212.137 451.215 212.267 450.829 212.29 450.405C212.318 449.966 212.224 449.521 212.009 449.068L213.034 450.742C213.049 451.396 212.884 452.006 212.539 452.571C212.198 453.123 211.71 453.549 211.074 453.851ZM213.679 452.437L212.856 450.703L212.798 450.73L210.123 445.093L211.612 444.386L215.11 451.758L213.679 452.437ZM217.216 450.759L213.718 443.387L215.149 442.708L216.02 444.543L216.093 444.509L218.72 450.045L217.216 450.759ZM216.895 446.2L215.877 444.54C215.753 443.832 215.826 443.213 216.094 442.684C216.363 442.155 216.791 441.751 217.379 441.472C217.6 441.367 217.764 441.313 217.869 441.311L218.541 442.727C218.484 442.731 218.412 442.753 218.325 442.794C218.234 442.826 218.125 442.871 218 442.931C217.277 443.274 216.822 443.72 216.634 444.27C216.456 444.815 216.543 445.458 216.895 446.2ZM225.787 446.869C225.045 447.221 224.312 447.368 223.588 447.31C222.873 447.248 222.22 447.003 221.628 446.576C221.035 446.148 220.561 445.559 220.204 444.807C219.843 444.046 219.681 443.308 219.72 442.593C219.764 441.864 219.994 441.205 220.412 440.617C220.829 440.03 221.404 439.562 222.137 439.214C222.85 438.876 223.54 438.737 224.207 438.799C224.878 438.846 225.482 439.073 226.018 439.48C226.563 439.883 227.011 440.455 227.364 441.197C227.418 441.313 227.466 441.426 227.507 441.536C227.553 441.633 227.591 441.738 227.622 441.854L221.435 444.79L220.9 443.662L226.032 441.227L225.869 441.853C225.494 441.063 225.029 440.545 224.476 440.3C223.923 440.055 223.328 440.083 222.692 440.385C222.008 440.71 221.576 441.204 221.395 441.869C221.22 442.519 221.328 443.258 221.722 444.087C222.12 444.925 222.628 445.487 223.247 445.772C223.876 446.052 224.547 446.022 225.26 445.684C225.694 445.478 226.029 445.213 226.264 444.889C226.495 444.555 226.606 444.178 226.595 443.758L228.012 443.085C228.1 443.894 227.949 444.632 227.558 445.302C227.177 445.967 226.587 446.489 225.787 446.869ZM237.201 441.452C235.929 442.056 234.736 442.079 233.621 441.521C232.512 440.95 231.562 439.831 230.77 438.163C230.222 437.007 229.917 435.942 229.856 434.967C229.8 433.978 229.972 433.123 230.374 432.401C230.78 431.665 231.402 431.098 232.241 430.7C233.166 430.261 234.051 430.16 234.895 430.397C235.749 430.629 236.454 431.169 237.009 432.015L235.433 432.763C235.1 432.26 234.703 431.946 234.243 431.822C233.788 431.684 233.315 431.732 232.823 431.965C232.014 432.349 231.571 432.984 231.496 433.87C231.42 434.756 231.714 435.897 232.377 437.295L232.823 438.234L232.385 438.283C232.267 437.784 232.272 437.297 232.401 436.823C232.53 436.348 232.763 435.919 233.1 435.535C233.443 435.136 233.869 434.816 234.38 434.573C235.045 434.258 235.689 434.123 236.313 434.169C236.947 434.211 237.52 434.423 238.032 434.806C238.549 435.174 238.966 435.691 239.281 436.356C239.601 437.031 239.729 437.696 239.663 438.354C239.602 438.996 239.363 439.588 238.946 440.128C238.525 440.659 237.943 441.1 237.201 441.452ZM236.59 440.201C237.187 439.918 237.587 439.504 237.789 438.959C237.996 438.4 237.944 437.793 237.633 437.138C237.313 436.463 236.879 436.032 236.329 435.844C235.775 435.647 235.184 435.697 234.558 435.994C233.941 436.287 233.51 436.71 233.265 437.263C233.02 437.816 233.048 438.411 233.35 439.047C233.561 439.49 233.84 439.83 234.188 440.066C234.536 440.302 234.918 440.434 235.332 440.462C235.756 440.485 236.176 440.398 236.59 440.201Z" fill="white"/>
</svg>
