<svg width="18" height="18" viewBox="0 0 18 18" fill="none" xmlns="http://www.w3.org/2000/svg">
<g clip-path="url(#clip0_6026_807)">
<path d="M6.75 8.97694V3.75049C6.75 2.50785 7.75736 1.50049 9 1.50049C10.2426 1.50049 11.25 2.50785 11.25 3.75049V4.50263" stroke="#333333" stroke-width="1.5" stroke-linecap="round"/>
<path d="M11.25 9.00098V14.2497C11.25 15.4923 10.2426 16.4997 9 16.4997C7.75736 16.4997 6.75 15.4923 6.75 14.2497V13.4884" stroke="#333333" stroke-width="1.5" stroke-linecap="round"/>
<path d="M9 11.25H3.74406C2.5047 11.25 1.5 10.2426 1.5 9C1.5 7.75736 2.5047 6.75 3.74406 6.75H4.49572" stroke="#333333" stroke-width="1.5" stroke-linecap="round"/>
<path d="M9 6.75H14.2458C15.4908 6.75 16.5 7.75736 16.5 9C16.5 10.2426 15.4908 11.25 14.2458 11.25H13.5249" stroke="#333333" stroke-width="1.5" stroke-linecap="round"/>
</g>
<defs>
<clipPath id="clip0_6026_807">
<rect width="18" height="18" fill="white"/>
</clipPath>
</defs>
</svg>
