<svg width="32" height="32" viewBox="0 0 32 32" fill="none" xmlns="http://www.w3.org/2000/svg">
<g clip-path="url(#clip0_6033_937)">
<path d="M12.4178 0.0491552C9.5221 0.0491552 7.11719 2.4086 7.11719 5.30876H26.7C29.5957 5.30876 32.0006 2.94931 32.0006 0L12.4178 0.0491552Z" fill="#04AB61"/>
<path d="M7.11719 5.30876C7.11719 2.4086 9.47302 0 12.4178 0V19.6129C12.4178 22.5131 10.062 24.9217 7.11719 24.9217V5.30876Z" fill="#04AB61"/>
<path fill-rule="evenodd" clip-rule="evenodd" d="M14.0859 7.0791V12.3879H20.2209C23.1166 12.3879 25.5215 10.0284 25.5215 7.0791H14.0859Z" fill="#FBB016"/>
<path d="M0 12.3879C0 9.4877 2.35583 7.0791 5.30061 7.0791V26.692C5.30061 29.5922 2.94479 32.0008 0 32.0008V12.3879Z" fill="#FBB016"/>
</g>
<defs>
<clipPath id="clip0_6033_937">
<rect width="32" height="32" fill="white"/>
</clipPath>
</defs>
</svg>
