<svg width="32" height="32" viewBox="0 0 32 32" fill="none" xmlns="http://www.w3.org/2000/svg">
<g clip-path="url(#clip0_6033_926)">
<path d="M16 32C24.8366 32 32 24.8366 32 16C32 7.16344 24.8366 0 16 0C7.16344 0 0 7.16344 0 16C0 24.8366 7.16344 32 16 32Z" fill="black"/>
<path d="M5.34375 13.6906H6.92812C7.9375 13.6906 8.57812 14.5 8.57812 15.6125C8.57812 16.2188 8.375 16.7594 7.97188 17.0938C7.70313 17.3281 7.33125 17.4656 6.85938 17.4656H5.34375V13.6906ZM6.80937 16.8094C7.53437 16.8094 7.80312 16.3719 7.80312 15.6313C7.80312 14.8906 7.48437 14.3687 6.825 14.3687H6.1V16.8281H6.80625V16.8094H6.80937ZM8.69687 16.1187C8.69687 15.3094 9.26875 14.6875 10.1125 14.6875C10.9563 14.6875 11.5281 15.3094 11.5281 16.1187C11.5281 16.9281 10.9563 17.55 10.1125 17.55C9.26875 17.55 8.69687 16.9094 8.69687 16.1187ZM10.7844 16.1187C10.7844 15.5969 10.5312 15.225 10.0938 15.225C9.65625 15.225 9.40312 15.5781 9.40312 16.1187C9.40312 16.6594 9.6375 16.9937 10.0938 16.9937C10.55 16.9937 10.7844 16.6406 10.7844 16.1187ZM11.6625 16.1187C11.6625 15.3094 12.1844 14.6875 13.0094 14.6875C13.7156 14.6875 14.1375 15.0906 14.2406 15.6812H13.5312C13.4812 15.4469 13.2969 15.2594 13.0437 15.2594C12.6062 15.2594 12.3875 15.5969 12.3875 16.1187C12.3875 16.625 12.5906 16.9781 13.0281 16.9781C13.3156 16.9781 13.5156 16.825 13.5688 16.5219H14.275C14.225 17.0938 13.7875 17.55 13.0625 17.55C12.2 17.5344 11.6625 16.9094 11.6625 16.1187ZM16.1594 17.4656V17.1469H16.1437C15.9594 17.4 15.7562 17.5344 15.3687 17.5344C14.7625 17.5344 14.425 17.1469 14.425 16.5562V14.7531H15.1313V16.4375C15.1313 16.7562 15.2656 16.925 15.5875 16.925C15.925 16.925 16.1281 16.6719 16.1281 16.3188V14.7531H16.8531V17.45H16.1625L16.1594 17.4656ZM20.3375 13.7094H21.0625V14.3844H20.3375V13.7094ZM20.3375 14.7531H21.0625V17.45H20.3375V14.7531ZM21.35 17.5344H22.0562C22.1062 17.7031 22.275 17.8375 22.5969 17.8375C23 17.8375 23.2031 17.6344 23.2031 17.2812V16.9781H23.1875C23.0344 17.1625 22.8156 17.2969 22.4813 17.2969C21.875 17.2969 21.2844 16.825 21.2844 16C21.2844 15.1906 21.7719 14.6844 22.4469 14.6844C22.7844 14.6844 23.0375 14.8188 23.1875 15.0375H23.2031V14.75H23.8937V17.2437C23.8937 17.6312 23.775 17.8844 23.575 18.0688C23.3563 18.2875 23.0031 18.3719 22.5969 18.3719C21.8875 18.375 21.4344 18.0719 21.35 17.5344ZM23.2531 15.9844C23.2531 15.5969 23.0344 15.2594 22.6125 15.2594C22.2406 15.2594 22.0063 15.5469 22.0063 16C22.0063 16.4531 22.2406 16.725 22.6125 16.725C23.0687 16.725 23.2531 16.3875 23.2531 15.9844ZM24.9219 15.125C25.125 14.8375 25.3781 14.6875 25.7313 14.6875C26.2875 14.6875 26.6594 15.1094 26.6594 15.6969V17.4656H25.9344V15.8156C25.9344 15.5281 25.7656 15.3281 25.4625 15.3281C25.1437 15.3281 24.9062 15.5812 24.9062 15.95V17.4844H24.2156V14.7875H24.9219V15.125ZM18.7031 15.1906C18.1469 15.0719 17.8937 14.9719 17.8937 14.6687C17.8937 14.4 18.1625 14.2312 18.5688 14.2312C18.9406 14.2312 19.225 14.4 19.2938 14.7531H20.0344C19.95 14.0281 19.4125 13.625 18.5688 13.625C17.725 13.625 17.1187 14.0125 17.1187 14.7531C17.1187 15.5438 17.7406 15.7125 18.4156 15.8656C18.9875 16 19.3438 16.0687 19.3438 16.4375C19.3438 16.7906 19.0062 16.925 18.6187 16.925C18.0781 16.925 17.8281 16.7406 17.775 16.2844H17.0344C17.0687 17.075 17.6406 17.5312 18.6688 17.5312C19.5125 17.5312 20.1344 17.1094 20.1344 16.3344C20.1187 15.5438 19.4781 15.3594 18.7031 15.1906Z" fill="white"/>
</g>
<defs>
<clipPath id="clip0_6033_926">
<rect width="32" height="32" fill="white"/>
</clipPath>
</defs>
</svg>
