<svg width="32" height="32" viewBox="0 0 32 32" fill="none" xmlns="http://www.w3.org/2000/svg">
<path d="M16.58 19.1069L3.88998 11.0312C3.23393 10.5973 2.7745 9.92316 2.61064 9.15388C2.44677 8.3846 2.59158 7.58174 3.01387 6.91818C3.43616 6.25462 4.10216 5.78344 4.86845 5.60611C5.63474 5.42878 6.44002 5.55949 7.11088 5.97008L16.4209 11.8944L24.78 6.04288C25.4322 5.60094 26.232 5.43327 27.0068 5.57609C27.7815 5.71891 28.469 6.16075 28.9207 6.80618C29.3725 7.45162 29.5522 8.24884 29.4211 9.02567C29.2899 9.80249 28.8585 10.4966 28.22 10.958L16.58 19.1069Z" fill="#EA4435"/>
<path d="M27.5001 26.5005H23.5001V8.50049C23.5001 7.70484 23.8162 6.94178 24.3788 6.37917C24.9414 5.81656 25.7045 5.50049 26.5001 5.50049C27.2958 5.50049 28.0588 5.81656 28.6214 6.37917C29.1841 6.94178 29.5001 7.70484 29.5001 8.50049L29.5001 24.5005C29.5001 25.0309 29.2894 25.5396 28.9143 25.9147C28.5393 26.2898 28.0306 26.5005 27.5001 26.5005Z" fill="#00AC47"/>
<path d="M29.4566 8.06545C29.4478 8.00545 29.4485 7.94415 29.436 7.88425C29.4168 7.79245 29.3811 7.70765 29.3537 7.61905C29.3272 7.51764 29.2952 7.41773 29.2579 7.31975C29.2379 7.27225 29.2071 7.23055 29.1844 7.18435C29.1222 7.05105 29.0502 6.92253 28.969 6.79985C28.929 6.74175 28.879 6.69225 28.8348 6.63725C28.759 6.53729 28.677 6.44214 28.5893 6.35235C28.5228 6.28765 28.447 6.23355 28.3747 6.17525C28.2979 6.10937 28.2178 6.04739 28.1347 5.98955C28.0554 5.93775 27.9686 5.89785 27.8847 5.85365C27.7963 5.80755 27.7097 5.75735 27.6177 5.72055C27.5288 5.68475 27.434 5.66195 27.3411 5.63465C27.2482 5.60735 27.1558 5.57465 27.0604 5.55695C26.9422 5.53796 26.823 5.52594 26.7034 5.52095C26.6275 5.51565 26.5523 5.50235 26.4761 5.50295C26.3346 5.50707 26.1937 5.52127 26.0542 5.54545C25.9979 5.55385 25.9412 5.55315 25.8853 5.56475C25.6966 5.6224 25.5084 5.68174 25.3208 5.74275C25.2693 5.76475 25.2242 5.79745 25.1743 5.82225C24.6665 6.05921 24.2382 6.43817 23.9411 6.91334C23.6441 7.38851 23.491 7.93955 23.5004 8.49985V14.2618L28.2204 10.9575C28.6839 10.6465 29.0473 10.2077 29.2667 9.69442C29.486 9.18111 29.5522 8.61542 29.4566 8.06545Z" fill="#FFBA00"/>
<path d="M5.5 5.5C6.29565 5.5 7.05871 5.81607 7.62132 6.37868C8.18393 6.94129 8.5 7.70435 8.5 8.5V26.5H4.5C3.96957 26.5 3.46086 26.2893 3.08579 25.9142C2.71071 25.5391 2.5 25.0304 2.5 24.5V8.5C2.5 7.70435 2.81607 6.94129 3.37868 6.37868C3.94129 5.81607 4.70435 5.5 5.5 5.5Z" fill="#4285F4"/>
<path d="M2.54445 8.06566C2.55325 8.00566 2.55255 7.94436 2.56505 7.88446C2.58425 7.79266 2.61995 7.70786 2.64735 7.61926C2.67392 7.51789 2.70589 7.41801 2.74315 7.32006C2.76315 7.27256 2.79395 7.23086 2.81675 7.18466C2.87893 7.05131 2.95093 6.92275 3.03215 6.80006C3.07215 6.74196 3.12215 6.69246 3.16635 6.63746C3.24217 6.5375 3.32413 6.44235 3.41175 6.35256C3.47825 6.28786 3.55405 6.23376 3.62645 6.17546C3.70327 6.10955 3.78337 6.04757 3.86645 5.98976C3.94575 5.93796 4.03255 5.89806 4.11645 5.85386C4.20316 5.80482 4.29227 5.76016 4.38345 5.72006C4.47245 5.68426 4.56725 5.66146 4.66005 5.63416C4.75285 5.60686 4.84535 5.57416 4.94075 5.55646C5.05895 5.53748 5.17815 5.52546 5.29775 5.52046C5.37375 5.51516 5.44885 5.50186 5.52505 5.50246C5.66652 5.50658 5.80751 5.52078 5.94695 5.54496C6.00325 5.55336 6.05995 5.55266 6.11595 5.56426C6.21275 5.58893 6.30821 5.61856 6.40195 5.65306C6.49622 5.67812 6.58917 5.70789 6.68045 5.74226C6.73185 5.76426 6.77695 5.79696 6.82695 5.82176C6.95658 5.88266 7.08164 5.95284 7.20115 6.03176C7.60179 6.30685 7.92945 6.67532 8.15583 7.10536C8.38222 7.5354 8.50053 8.01407 8.50055 8.50006V14.2621L3.78055 10.958C3.31713 10.6468 2.95377 10.2081 2.7344 9.69477C2.51504 9.18149 2.44906 8.61565 2.54445 8.06566Z" fill="#C52528"/>
</svg>
