<svg width="32" height="32" viewBox="0 0 32 32" fill="none" xmlns="http://www.w3.org/2000/svg">
<path d="M19.4844 7.93701V13.414L21.4004 14.619C21.4695 14.6342 21.5412 14.6342 21.6104 14.619L29.8484 9.06501C29.8424 8.79546 29.7437 8.5362 29.5691 8.33078C29.3945 8.12537 29.1544 7.98632 28.8894 7.93701H19.4844Z" fill="#0072C6"/>
<path d="M19.4834 15.4568L21.2304 16.6568C21.3122 16.7066 21.4061 16.733 21.5019 16.733C21.5977 16.733 21.6916 16.7066 21.7734 16.6568C21.4734 16.8378 29.8464 11.2788 29.8464 11.2788V21.3448C29.8683 21.5488 29.8453 21.7551 29.779 21.9492C29.7128 22.1434 29.605 22.3207 29.463 22.4688C29.3211 22.6169 29.1486 22.7323 28.9574 22.8067C28.7662 22.8811 28.5611 22.9129 28.3564 22.8998H19.4824L19.4834 15.4568Z" fill="#0072C6"/>
<path d="M10.4396 12.9322C10.1493 12.9308 9.86405 13.0079 9.61406 13.1555C9.36407 13.303 9.15865 13.5154 9.01956 13.7702C8.63968 14.4456 8.4574 15.2141 8.49356 15.9882C8.45408 16.7606 8.63661 17.5282 9.01956 18.2002C9.15807 18.4445 9.35843 18.648 9.60052 18.7903C9.84261 18.9327 10.1179 19.0088 10.3987 19.011C10.6795 19.0132 10.956 18.9415 11.2003 18.803C11.4446 18.6646 11.6482 18.4642 11.7906 18.2222C12.1693 17.5533 12.3481 16.7897 12.3056 16.0222C12.3489 15.2306 12.1761 14.4421 11.8056 13.7412C11.6731 13.4947 11.4759 13.2891 11.2352 13.1465C10.9944 13.0039 10.7193 12.9298 10.4396 12.9322Z" fill="#0072C6"/>
<path d="M2.15234 5.155V26.582L18.4523 30V2L2.15234 5.155ZM13.0603 19.491C12.7554 19.9209 12.35 20.2696 11.8794 20.5068C11.4088 20.744 10.8873 20.8626 10.3603 20.852C9.84669 20.8611 9.33843 20.7461 8.87879 20.5166C8.41916 20.2871 8.02174 19.95 7.72034 19.534C7.00553 18.536 6.64795 17.3262 6.70534 16.1C6.64454 14.8136 7.00858 13.543 7.74134 12.484C8.05011 12.0459 8.46191 11.6906 8.94044 11.4492C9.41897 11.2078 9.94953 11.0879 10.4853 11.1C10.9953 11.0898 11.4999 11.2049 11.955 11.4352C12.4101 11.6655 12.8016 12.004 13.0953 12.421C13.803 13.4406 14.1545 14.6653 14.0953 15.905C14.1577 17.182 13.7936 18.4436 13.0603 19.491Z" fill="#0072C6"/>
</svg>
