<svg width="32" height="32" viewBox="0 0 32 32" fill="none" xmlns="http://www.w3.org/2000/svg">
<g clip-path="url(#clip0_6033_929)">
<path d="M16 32C24.8366 32 32 24.8366 32 16C32 7.16344 24.8366 0 16 0C7.16344 0 0 7.16344 0 16C0 24.8366 7.16344 32 16 32Z" fill="#007CC5"/>
<path d="M8 11.2461V20.7536H17.7131L27.2188 11.2461H8ZM10.6131 13.0142H10.6175C11.3084 13.0142 12.1506 13.2108 12.76 13.5211L12.1038 14.6661C11.435 14.3436 11.0991 14.3123 10.7188 14.2923C10.1519 14.2611 9.86688 14.4645 9.8625 14.683C9.85688 14.9492 10.3978 15.1902 10.9078 15.3539C11.6797 15.5992 12.6609 15.9267 12.8109 16.8758L14.2219 13.1458H15.8609L17.5134 17.6117L17.5072 13.1473H19.4062C21.2138 13.1473 22.0625 13.7592 22.0625 15.1639C22.0625 16.4252 21.1875 17.177 19.7109 17.177H19.0997L19.0938 18.8548L16.2188 18.852L16.0194 18.1248C15.7006 18.2268 15.3678 18.2777 15.0331 18.2758C14.69 18.278 14.3488 18.2239 14.0231 18.1158L13.7359 18.8514L12.1344 18.8564L12.2063 18.4864C12.1834 18.5064 12.1616 18.5267 12.1369 18.5461C11.7088 18.8898 11.17 19.0495 10.5063 19.0614H10.335C9.57219 19.0614 8.90094 18.8808 8.26844 18.5214L8.85312 17.3614C9.48625 17.7364 9.88438 17.8202 10.4191 17.8086C10.6969 17.803 10.8978 17.7523 11.0291 17.617C11.1059 17.5375 11.1504 17.4322 11.1541 17.3217C11.1594 17.0205 10.7303 16.8789 10.2053 16.7164C9.77969 16.5845 9.29656 16.4039 8.91875 16.128C8.47156 15.7989 8.25875 15.3877 8.26937 14.807C8.2718 14.3945 8.43412 13.9989 8.72219 13.7036C9.13812 13.2736 9.80844 13.0123 10.6141 13.0123L10.6131 13.0142ZM19.0991 14.3517V15.8767H19.5163C20.0719 15.8767 20.5163 15.6917 20.5163 15.1042C20.5163 14.5367 20.0728 14.3514 19.5163 14.3514L19.0991 14.3517ZM15.0266 14.9658L14.4275 16.8577C14.6214 16.9291 14.8265 16.965 15.0331 16.9636C15.2353 16.9641 15.4361 16.9301 15.6269 16.863L15.0372 14.9658H15.0266Z" fill="white"/>
</g>
<defs>
<clipPath id="clip0_6033_929">
<rect width="32" height="32" fill="white"/>
</clipPath>
</defs>
</svg>
