<svg width="320" height="134" viewBox="0 0 320 134" fill="none" xmlns="http://www.w3.org/2000/svg">
<rect width="320" height="134" fill="white"/>
<g clip-path="url(#clip0_6024_615)">
<path d="M98.195 81.0001C97.6351 79.1232 97.5329 77.1346 97.898 75.2091C98.2534 73.1427 99.0325 71.1686 100.181 69.4182H100.493C99.3733 71.1832 98.6089 73.1524 98.2486 75.2091C97.8931 77.1346 97.9808 79.1135 98.5018 81.0001H98.1901H98.195Z" fill="#231F20"/>
<path d="M100.381 71.8785H100.775L100.571 73.0649H100.59C100.912 72.3453 101.369 71.7229 102.217 71.7229C103.507 71.7229 103.629 73.2594 103.293 75.2334C102.932 77.3242 102.256 78.7829 100.99 78.7829C100.23 78.7829 99.8456 78.2432 99.865 77.3242H99.8456L99.2321 80.8979H98.8377L100.386 71.8834L100.381 71.8785ZM100.999 78.3404C102.071 78.3404 102.557 76.9498 102.854 75.2334C103.225 73.0649 102.869 72.1605 102.134 72.1605C101.136 72.1605 100.556 73.1524 100.201 75.2334C99.8602 77.2075 100.031 78.3404 100.999 78.3404Z" fill="#231F20"/>
<path d="M105.007 78.7829C103.571 78.7829 103.488 77.1978 103.824 75.248C104.155 73.3129 104.783 71.7278 106.283 71.7278C107.782 71.7278 107.802 73.3129 107.466 75.248C107.13 77.1929 106.507 78.7829 105.007 78.7829ZM106.176 72.1654C105.134 72.1654 104.593 73.3129 104.262 75.2626C103.931 77.1978 104.077 78.3453 105.119 78.3453C106.161 78.3453 106.702 77.1978 107.033 75.2626C107.364 73.3129 107.218 72.1654 106.176 72.1654Z" fill="#231F20"/>
<path d="M108.615 71.8785H109.009L108.834 72.885H108.853C109.063 72.2188 109.666 71.7569 110.363 71.7229C111.205 71.7229 111.356 72.3696 111.322 72.9871H111.341C111.546 72.2869 112.164 71.7861 112.89 71.7229C113.751 71.7229 114.082 72.3696 113.897 73.4393L113.006 78.6224H112.612L113.484 73.5511C113.639 72.6467 113.347 72.1556 112.787 72.1556C111.974 72.1556 111.395 72.9822 111.195 74.1443L110.426 78.6224H110.032L110.859 73.7845C111.034 72.778 110.869 72.1605 110.182 72.1605C109.33 72.1605 108.795 73.0892 108.615 74.1492L107.845 78.6224H107.451L108.61 71.8785H108.615Z" fill="#231F20"/>
<path d="M116.94 77.8153C116.886 78.1363 116.964 78.2675 117.101 78.2675C117.193 78.2675 117.281 78.2481 117.364 78.2043L117.295 78.5933C117.164 78.676 117.013 78.7197 116.857 78.71C116.692 78.71 116.424 78.5058 116.516 77.9758L116.589 77.5479H116.57C116.326 78.2529 115.679 78.744 114.934 78.7878C113.985 78.7878 113.712 77.9515 113.892 76.9061C114.067 75.885 114.501 75.3064 115.314 75.0487L116.56 74.65C117.057 74.4944 117.164 74.2222 117.261 73.6581C117.471 72.4328 117.057 72.1751 116.463 72.1751C115.547 72.1751 115.153 72.885 114.997 73.8137H114.603C114.759 72.8996 115.231 71.7375 116.502 71.7375C117.699 71.7375 117.85 72.5495 117.685 73.5171L116.945 77.8251L116.94 77.8153ZM117.081 74.6938H117.062C116.882 74.9661 116.726 75.005 116.297 75.146L115.45 75.4183C114.778 75.6371 114.467 76.1038 114.33 76.9012C114.179 77.7764 114.394 78.3453 115.08 78.3453C116.005 78.3453 116.609 77.441 116.843 76.0892L117.081 74.6938Z" fill="#231F20"/>
<path d="M119.39 69.4182H119.784L118.207 78.6273H117.812L119.39 69.4182Z" fill="#231F20"/>
<path d="M120.247 71.8785H120.641L119.482 78.6224H119.088L120.247 71.8785ZM120.67 69.4133H121.065L120.841 70.731H120.446L120.67 69.4133Z" fill="#231F20"/>
<path d="M123.507 77.3242H123.488C123.196 78.2383 122.626 78.7829 121.862 78.7829C120.591 78.7829 120.416 77.3242 120.776 75.2334C121.131 73.1718 121.755 71.7229 123.093 71.7229C123.843 71.7229 124.14 72.3404 124.218 73.0649H124.238L124.866 69.4133H125.26L123.678 78.6224H123.283L123.507 77.3193V77.3242ZM121.998 78.3453C122.967 78.3453 123.527 77.2124 123.863 75.2383C124.252 73.0211 123.863 72.1654 123.035 72.1654C122.1 72.1654 121.56 73.1864 121.209 75.2383C120.917 76.9498 120.927 78.3453 121.998 78.3453Z" fill="#231F20"/>
<path d="M125.923 78.7829C124.487 78.7829 124.404 77.1978 124.74 75.248C125.071 73.3129 125.699 71.7278 127.199 71.7278C128.698 71.7278 128.718 73.3129 128.387 75.248C128.051 77.1929 127.423 78.7829 125.928 78.7829H125.923ZM127.092 72.1654C126.05 72.1654 125.509 73.3129 125.178 75.2626C124.847 77.1978 124.993 78.3453 126.035 78.3453C127.077 78.3453 127.618 77.1978 127.949 75.2626C128.28 73.3129 128.134 72.1654 127.092 72.1654Z" fill="#231F20"/>
<path d="M129.478 71.8785H129.872L129.697 72.885H129.717C129.926 72.2188 130.53 71.7569 131.226 71.7229C132.068 71.7229 132.219 72.3696 132.185 72.9871H132.205C132.409 72.2869 133.027 71.7861 133.753 71.7229C134.615 71.7229 134.946 72.3696 134.761 73.4393L133.87 78.6273H133.475L134.347 73.556C134.503 72.6516 134.21 72.1605 133.651 72.1605C132.837 72.1605 132.258 72.9871 132.058 74.1492L131.289 78.6224H130.895L131.722 73.7845C131.898 72.778 131.732 72.1605 131.046 72.1605C130.194 72.1605 129.658 73.0892 129.478 74.1492L128.709 78.6224H128.314L129.473 71.8785H129.478Z" fill="#231F20"/>
<path d="M135.944 71.8785H136.338L135.179 78.6224H134.785L135.944 71.8785ZM136.367 69.4133H136.762L136.538 70.731H136.143L136.367 69.4133Z" fill="#231F20"/>
<path d="M139.201 77.3242H139.181C138.889 78.2383 138.319 78.7829 137.555 78.7829C136.284 78.7829 136.109 77.3242 136.469 75.2334C136.825 73.1718 137.448 71.7229 138.787 71.7229C139.537 71.7229 139.834 72.3404 139.912 73.0649H139.931L140.559 69.4133H140.953L139.371 78.6224H138.977L139.201 77.3193V77.3242ZM137.696 78.3453C138.665 78.3453 139.225 77.2124 139.561 75.2383C139.95 73.0211 139.561 72.1654 138.733 72.1654C137.798 72.1654 137.258 73.1864 136.907 75.2383C136.615 76.9498 136.625 78.3453 137.696 78.3453Z" fill="#231F20"/>
<path d="M140.924 75.2188C140.739 76.3031 140.398 78.3404 141.669 78.3404C142.813 78.3404 143.246 76.9206 143.329 76.4198H143.723C143.548 77.4506 142.861 78.778 141.635 78.778C140.227 78.778 140.12 77.3582 140.515 75.0633C140.87 73.0017 141.678 71.7229 142.91 71.7229C144.142 71.7229 144.381 73.0406 144.006 75.2188H140.924ZM143.641 74.7812C143.85 73.556 143.933 72.1605 142.808 72.1605C141.6 72.1605 141.148 73.9012 140.997 74.7812H143.641Z" fill="#231F20"/>
<path d="M144.878 69.4182C145.438 71.2999 145.54 73.2837 145.175 75.2091C144.82 77.2756 144.041 79.2448 142.892 81.0001H142.58C143.7 79.2351 144.464 77.2659 144.824 75.2091C145.18 73.2837 145.092 71.3048 144.571 69.4182H144.883H144.878Z" fill="#231F20"/>
<path d="M148.032 77.4556C147.974 77.791 147.667 78.71 146.922 78.71C146.177 78.71 146.128 77.898 146.313 76.8235C146.518 75.6419 146.922 74.9709 147.604 74.9709C148.285 74.9709 148.295 75.817 148.251 76.0795H148.018C148.057 75.8607 148.052 75.2043 147.555 75.2043C147.019 75.2043 146.718 75.8121 146.542 76.838C146.352 77.9515 146.46 78.4815 146.995 78.4815C147.531 78.4815 147.755 77.7278 147.798 77.4604H148.032V77.4556Z" fill="#231F20"/>
<path d="M149.815 78.1946C149.785 78.3648 149.829 78.4328 149.902 78.4328C149.951 78.4328 150 78.4231 150.039 78.3988L150.005 78.603C149.936 78.6468 149.854 78.6711 149.776 78.6662C149.688 78.6662 149.547 78.5544 149.596 78.2772L149.635 78.0536H149.625C149.493 78.428 149.152 78.6857 148.758 78.71C148.257 78.71 148.111 78.2627 148.208 77.7132C148.227 77.261 148.529 76.8672 148.963 76.7262L149.625 76.5123C149.888 76.4296 149.946 76.2886 149.995 75.9871C150.107 75.3356 149.888 75.1995 149.571 75.1995C149.084 75.1995 148.88 75.5738 148.792 76.0698H148.583C148.666 75.5836 148.914 74.9661 149.591 74.9661C150.224 74.9661 150.306 75.3988 150.219 75.9093L149.824 78.1946H149.815ZM149.888 76.5414H149.878C149.781 76.6873 149.703 76.7067 149.474 76.7797L149.026 76.9255C148.68 77.0374 148.447 77.3534 148.432 77.7132C148.354 78.18 148.466 78.4815 148.831 78.4815C149.323 78.4815 149.644 78.005 149.766 77.2854L149.893 76.5463L149.888 76.5414Z" fill="#231F20"/>
<path d="M150.992 75.0487H151.201L151.094 75.676H151.104C151.274 75.2918 151.517 74.9661 151.965 74.9661C152.647 74.9661 152.715 75.7781 152.535 76.8283C152.345 77.9369 151.985 78.71 151.313 78.71C150.909 78.71 150.704 78.4231 150.719 77.9369H150.709L150.383 79.8332H150.174L150.992 75.0487ZM151.318 78.4766C151.888 78.4766 152.146 77.7375 152.301 76.8283C152.496 75.6808 152.311 75.1995 151.917 75.1995C151.386 75.1995 151.084 75.7246 150.894 76.8283C150.714 77.8737 150.802 78.4766 151.318 78.4766Z" fill="#231F20"/>
<path d="M154.366 76.0552L154.386 75.9531C154.44 75.6322 154.449 75.1995 153.972 75.1995C153.67 75.1995 153.383 75.3891 153.3 75.8656C153.203 76.1427 153.339 76.4491 153.612 76.5706L154.021 76.7748C154.342 76.9402 154.464 77.2416 154.381 77.7278C154.332 78.2578 153.909 78.6711 153.378 78.7149C152.58 78.7149 152.643 78.005 152.716 77.5868L152.731 77.4896H152.94L152.92 77.6063C152.833 78.112 152.935 78.4815 153.417 78.4815C153.841 78.4815 154.079 78.1314 154.147 77.7376C154.245 77.4507 154.113 77.1395 153.841 77.0034L153.451 76.7894C153.115 76.629 152.95 76.2449 153.062 75.8948C153.091 75.3891 153.505 74.9904 154.011 74.9709C154.654 74.9709 154.668 75.5107 154.595 75.9483L154.576 76.0601H154.362L154.366 76.0552Z" fill="#231F20"/>
<path d="M156.29 78.6272H156.08L156.173 78.0875H156.163C156.022 78.4376 155.696 78.6758 155.321 78.7099C154.912 78.7099 154.644 78.423 154.756 77.7471L155.219 75.0535H155.428L154.985 77.6256C154.878 78.2625 155.053 78.4813 155.413 78.4813C155.856 78.4813 156.192 77.9659 156.299 77.3436L156.694 75.0535H156.903L156.29 78.6321V78.6272Z" fill="#231F20"/>
<path d="M157.628 73.7407H157.838L157 78.6273H156.791L157.628 73.7407Z" fill="#231F20"/>
<path d="M157.974 76.8186C157.877 77.3923 157.697 78.4717 158.369 78.4717C158.977 78.4717 159.206 77.7181 159.25 77.4507H159.459C159.367 77.9952 159.002 78.7051 158.349 78.7051C157.604 78.7051 157.546 77.9515 157.755 76.7359C157.945 75.6419 158.374 74.9661 159.026 74.9661C159.678 74.9661 159.805 75.6614 159.61 76.8186H157.974ZM159.415 76.5901C159.527 75.9385 159.571 75.1995 158.977 75.1995C158.339 75.1995 158.096 76.1233 158.013 76.5901H159.415Z" fill="#231F20"/>
<path d="M161.398 76.0552L161.417 75.9531C161.471 75.6322 161.481 75.1995 161.008 75.1995C160.706 75.1995 160.419 75.3891 160.336 75.8656C160.239 76.1427 160.375 76.4491 160.648 76.5706L161.052 76.7748C161.373 76.9402 161.495 77.2416 161.412 77.7278C161.364 78.2578 160.94 78.6711 160.409 78.7149C159.611 78.7149 159.674 78.005 159.747 77.5868L159.762 77.4896H159.971L159.952 77.6063C159.864 78.112 159.966 78.4815 160.448 78.4815C160.872 78.4815 161.111 78.1314 161.179 77.7376C161.276 77.4507 161.145 77.1395 160.872 77.0034L160.482 76.7894C160.147 76.629 159.981 76.2449 160.093 75.8948C160.122 75.3891 160.536 74.9904 161.042 74.9709C161.685 74.9709 161.7 75.5107 161.627 75.9483L161.607 76.0601H161.398V76.0552Z" fill="#231F20"/>
<path d="M98.4783 54.1411H105.83C108.065 54.1411 111.731 54.1411 111.731 58.1816C111.731 62.2222 108.065 62.2076 105.83 62.2076H101.059V67.3178H98.4831V54.1411H98.4783ZM106.39 59.9952C107.86 59.9952 109.151 59.8688 109.151 58.1622C109.151 56.4555 107.86 56.3486 106.39 56.3486H101.054V59.9904H106.39V59.9952Z" fill="#007785"/>
<path d="M111.97 62.441C111.97 59.8299 113.548 57.2578 117.433 57.2578C121.319 57.2578 122.896 59.8299 122.896 62.441C122.896 66.321 120.101 67.6435 117.433 67.6435C114.765 67.6435 111.97 66.321 111.97 62.441ZM120.613 62.4069C120.613 60.1217 119.142 59.1784 117.438 59.1784C115.734 59.1784 114.264 60.1217 114.264 62.4069C114.264 64.4734 115.427 65.723 117.438 65.723C119.449 65.723 120.613 64.4734 120.613 62.4069Z" fill="#007785"/>
<path d="M124.078 57.5837H126.293V58.6874C127.14 57.7587 128.343 57.2385 129.599 57.253C131.576 57.253 132.321 58.1963 132.774 58.8138C133.611 57.7879 134.882 57.2093 136.206 57.253C138.382 57.253 139.945 58.1574 139.945 60.4232V67.313H137.696V61.4248C137.696 59.796 137.117 59.1785 135.739 59.1785C134.75 59.2563 133.825 59.6939 133.144 60.4086V67.313H130.894V61.4248C130.894 59.796 130.315 59.1785 128.932 59.1785C127.944 59.2563 127.019 59.6939 126.337 60.4086V67.313H124.088V57.5837H124.078Z" fill="#007785"/>
<path d="M151.364 65.7424C151.33 66.2772 151.388 66.8072 151.544 67.3178H149.241C149.163 66.9969 149.119 66.6662 149.114 66.3404C147.839 67.1573 146.363 67.6095 144.849 67.6435C143.559 67.6435 141.076 67.099 141.076 64.7067C141.076 61.4247 145.979 60.9531 149.114 60.7732V60.3356C149.114 59.5917 148.442 59.0665 146.592 59.0665C144.523 59.0665 144.09 59.8299 143.958 60.355H141.616C142.162 57.71 144.757 57.2529 146.573 57.2529C151.271 57.2529 151.364 59.5382 151.364 60.8802V65.7424ZM149.114 62.4069C147.931 62.4555 146.758 62.616 145.614 62.898C144.216 63.2238 143.564 63.6954 143.544 64.5463C143.525 65.3777 144.07 65.9077 145.18 65.9077C146.587 65.8591 147.951 65.4166 149.119 64.6387V62.4069H149.114Z" fill="#007785"/>
<path d="M153.213 54.1411H155.462V67.3178H153.213V54.1411Z" fill="#007785"/>
<path d="M156.791 68.4409C157.239 68.5722 157.702 68.6451 158.169 68.6597C160.019 68.6597 160.638 67.8817 160.638 67.1378C160.633 66.6078 160.492 66.0827 160.239 65.6159L156.334 57.5835H158.802L162.103 64.6872L165.404 57.5835H167.873L162.809 68.0957C162.132 69.7245 160.506 70.7456 158.744 70.6532C158.077 70.6629 157.415 70.5657 156.782 70.3615V68.4409H156.791Z" fill="#007785"/>
<path d="M175.805 60.5738C175.089 59.543 173.882 58.9644 172.63 59.0519C170.994 59.0519 170.454 59.6888 170.454 60.2286C170.454 60.9919 171.398 61.1183 172.742 61.2982C175.41 61.6435 177.845 62.0422 177.845 64.4538C177.845 67.3177 174.558 67.6435 172.981 67.6435C169.621 67.6435 168.57 66.3015 167.732 65.2707L169.636 64.167C170.415 65.436 171.778 65.8347 173.195 65.8347C174.393 65.8347 175.483 65.47 175.483 64.6192C175.483 63.8752 174.938 63.8023 172.543 63.4765C168.857 63.0049 168.097 61.8282 168.097 60.3404C168.097 59.3242 168.896 57.2383 172.689 57.2383C173.794 57.2383 176.209 57.4911 177.679 59.543L175.805 60.5786V60.5738Z" fill="#007785"/>
<path d="M178.21 57.9094H179.953V54.7393H182.202V57.9094H185.596V59.83H182.202V64.2887C182.202 64.9791 182.475 65.723 183.78 65.723C184.427 65.7036 185.075 65.6112 185.703 65.4508V67.4248C184.899 67.5561 184.086 67.629 183.268 67.6436C181.126 67.6436 179.948 66.9532 179.948 64.8138V59.83H178.205V57.9094H178.21Z" fill="#007785"/>
<path d="M184.983 54.6516C185.548 54.6516 186.001 55.1087 185.996 55.6727C185.996 56.2367 185.538 56.6889 184.974 56.684C184.414 56.684 183.956 56.227 183.961 55.6678C183.961 55.1038 184.419 54.6516 184.983 54.6516ZM184.983 56.4652C185.421 56.4749 185.787 56.1249 185.796 55.6824C185.806 55.2399 185.456 54.8801 185.013 54.8704C184.569 54.8607 184.209 55.2108 184.199 55.6532C184.199 55.6532 184.199 55.663 184.199 55.6678C184.199 56.1006 184.545 56.4555 184.983 56.4652ZM184.944 55.7651H184.803V56.2416H184.599V55.1378H185.022C185.29 55.1378 185.441 55.2302 185.441 55.4587C185.451 55.6095 185.339 55.7456 185.183 55.7553C185.178 55.7553 185.168 55.7553 185.163 55.7553L185.46 56.2367H185.227L184.949 55.7602L184.944 55.7651ZM184.993 55.6095C185.124 55.6095 185.227 55.5949 185.227 55.4442C185.227 55.3177 185.105 55.2934 184.993 55.2934H184.798V55.6095H184.993Z" fill="#007785"/>
<path d="M79.0371 73.3032C76.5053 71.0082 78.7888 68.052 84.0179 66.7975C87.129 66.073 90.3571 66.0244 93.4877 66.6565L93.4682 66.6662C91.5889 66.3162 88.5897 66.9774 85.9897 68.4312C83.3898 69.885 81.9778 71.6792 82.3041 72.8996C82.3041 72.8996 82.6497 74.3777 81.4569 74.2805C80.561 74.2416 79.709 73.8964 79.0371 73.3032Z" fill="url(#paint0_radial_6024_615)"/>
<path d="M93.4336 45.2189C87.9465 43.9061 84.9327 48.6419 86.7731 55.5997C87.9708 59.825 90.2932 63.6467 93.4823 66.6662C93.4823 66.6662 90.4101 60.7829 90.8045 56.7375C91.1988 52.6921 93.0198 49.7796 95.1913 49.2983C95.1913 49.2983 97.7863 48.6565 96.759 47.3388C95.9313 46.2691 94.7531 45.5203 93.4336 45.2189Z" fill="url(#paint1_radial_6024_615)"/>
<path d="M81.0183 52.0211C78.657 52.658 80.4 56.6159 84.8258 60.7099C87.9175 63.5738 88.5163 63.9433 93.4874 66.671C91.9245 65.7715 88.7938 63.1361 86.6564 60.3549C84.519 57.5738 83.4381 55.1524 83.813 54.2383C84.0467 53.5867 83.7838 52.8622 83.1898 52.517C82.0018 51.846 81.3202 51.9481 81.0232 52.0259L81.0183 52.0211Z" fill="url(#paint2_radial_6024_615)"/>
<path d="M80.1024 64.5753C80.0148 63.1653 82.2447 62.8395 86.2566 63.9238C88.652 64.5704 92.1186 65.6644 93.4819 66.6515C93.4819 66.6515 89.7913 65.1734 87.2644 64.8865C84.7424 64.5996 82.9409 64.9011 82.3615 65.3679C81.9623 65.6742 81.4267 65.7422 80.9593 65.5526C80.1949 65.1393 80.1121 64.7552 80.0975 64.5704L80.1024 64.5753Z" fill="url(#paint3_radial_6024_615)"/>
</g>
<defs>
<radialGradient id="paint0_radial_6024_615" cx="0" cy="0" r="1" gradientUnits="userSpaceOnUse" gradientTransform="translate(-124.448 -29.0886) rotate(-42.5314) scale(5.00185 7.885)">
<stop stop-color="#F8F8E3"/>
<stop offset="1" stop-color="#BFC131"/>
</radialGradient>
<radialGradient id="paint1_radial_6024_615" cx="0" cy="0" r="1" gradientUnits="userSpaceOnUse" gradientTransform="translate(326.657 35.4099) scale(11.2816 10.2196)">
<stop stop-color="#E2F2F3"/>
<stop offset="1" stop-color="#007B89"/>
</radialGradient>
<radialGradient id="paint2_radial_6024_615" cx="0" cy="0" r="1" gradientUnits="userSpaceOnUse" gradientTransform="translate(103.398 58.7755) scale(5.44942 5.44026)">
<stop stop-color="#FFFCE5"/>
<stop offset="1" stop-color="#FFDB00"/>
</radialGradient>
<radialGradient id="paint3_radial_6024_615" cx="0" cy="0" r="1" gradientUnits="userSpaceOnUse" gradientTransform="translate(-119.721 70.4035) scale(3.95907 3.94804)">
<stop stop-color="#FFF3E4"/>
<stop offset="1" stop-color="#F78E1E"/>
</radialGradient>
<clipPath id="clip0_6024_615">
<rect width="108" height="36" fill="white" transform="translate(78 45)"/>
</clipPath>
</defs>
</svg>
